<svg width="1221" height="699" viewBox="0 0 1221 699" fill="none" xmlns="http://www.w3.org/2000/svg">
<g clip-path="url(#clip0_24_794)">
<mask id="mask0_24_794" style="mask-type:luminance" maskUnits="userSpaceOnUse" x="0" y="0" width="1221" height="699">
<path d="M1221 0H0V699H1221V0Z" fill="white"/>
</mask>
<g mask="url(#mask0_24_794)">
<path d="M0 609.528H238.476V699H11.9245C5.3388 699 0 693.994 0 687.819V609.528Z" fill="black" fill-opacity="0.1"/>
<path fill-rule="evenodd" clip-rule="evenodd" d="M45.3052 676.067C58.4767 676.067 69.1542 666.055 69.1542 653.705C69.1542 641.355 58.4767 631.344 45.3052 631.344C32.1337 631.344 21.4561 641.355 21.4561 653.705C21.4561 666.055 32.1337 676.067 45.3052 676.067Z" fill="white" fill-opacity="0.1" stroke="white" stroke-opacity="0.3" stroke-width="0.821532"/>
<path d="M45.2977 642.525L33.3732 653.705L45.2977 664.886L57.2222 653.705L45.2977 642.525Z" fill="#00CFFD" stroke="black" stroke-width="0.821532" stroke-miterlimit="10" stroke-linecap="round" stroke-linejoin="round"/>
<path fill-rule="evenodd" clip-rule="evenodd" d="M42.3137 654.362C42.0341 654.101 41.5812 654.101 41.3017 654.362C41.0223 654.623 41.0223 655.048 41.3017 655.311L44.9154 658.7C45.0497 658.825 45.2317 658.896 45.4214 658.896C45.6111 658.896 45.7931 658.825 45.9274 658.7L49.5411 655.311C49.8205 655.048 49.8205 654.623 49.5411 654.362C49.2615 654.101 48.8086 654.101 48.5291 654.362L46.1402 656.601V648.623C46.1402 648.252 45.8199 647.952 45.4247 647.952C45.0295 647.952 44.7092 648.252 44.7092 648.623V656.608L42.3137 654.362Z" fill="black"/>
<path d="M156.365 636.464H84.8907C82.7854 636.464 81.0786 638.064 81.0786 640.037V640.039C81.0786 642.012 82.7854 643.612 84.8907 643.612H156.365C158.471 643.612 160.177 642.012 160.177 640.039V640.037C160.177 638.064 158.471 636.464 156.365 636.464Z" fill="white" fill-opacity="0.6"/>
<path d="M134.446 652.698H82.9846C81.9321 652.698 81.0786 653.498 81.0786 654.484C81.0786 655.473 81.9321 656.271 82.9846 656.271H134.446C135.499 656.271 136.352 655.473 136.352 654.484C136.352 653.498 135.499 652.698 134.446 652.698Z" fill="white" fill-opacity="0.3"/>
<path d="M209.267 665.357H84.0598C82.4133 665.357 81.0786 666.608 81.0786 668.151C81.0786 669.696 82.4133 670.947 84.0598 670.947H209.267C210.914 670.947 212.248 669.696 212.248 668.151C212.248 666.608 210.914 665.357 209.267 665.357Z" fill="black" fill-opacity="0.2"/>
<path d="M166.341 666.475H84.0614C83.0735 666.475 82.2728 667.227 82.2728 668.153C82.2728 669.079 83.0735 669.83 84.0614 669.83H166.341C167.328 669.83 168.129 669.079 168.129 668.153C168.129 667.227 167.328 666.475 166.341 666.475Z" fill="#00CFFD" stroke="black" stroke-opacity="0.05" stroke-width="0.247119"/>
<path d="M220.597 65.3152H17.8792C14.5864 65.3152 11.917 67.818 11.917 70.9056V91.0312C11.917 94.1187 14.5864 96.6217 17.8792 96.6217H220.597C223.889 96.6217 226.559 94.1187 226.559 91.0312V70.9056C226.559 67.818 223.889 65.3152 220.597 65.3152Z" fill="black" fill-opacity="0.2"/>
<path d="M29.1549 85.8284C30.3585 85.8284 31.4863 85.4877 32.425 84.9058L35.7403 88.0214C35.9598 88.2202 36.2398 88.3196 36.5426 88.3196C37.1708 88.3196 37.6326 87.8583 37.6326 87.2762C37.6326 87.0066 37.5342 86.744 37.3222 86.5452L34.0295 83.4438C34.7109 82.5424 35.112 81.4353 35.112 80.2429C35.112 77.1698 32.4325 74.6573 29.1549 74.6573C25.885 74.6573 23.198 77.1698 23.198 80.2429C23.198 83.3161 25.8775 85.8284 29.1549 85.8284ZM29.1549 84.338C26.7556 84.338 24.7875 82.4928 24.7875 80.2429C24.7875 78.0002 26.7556 76.1477 29.1549 76.1477C31.5544 76.1477 33.5225 78.0002 33.5225 80.2429C33.5225 82.4928 31.5544 84.338 29.1549 84.338Z" fill="white"/>
<path d="M65.2847 110.039H13.823C12.7704 110.039 11.917 110.839 11.917 111.826C11.917 112.813 12.7704 113.613 13.823 113.613H65.2847C66.3374 113.613 67.1907 112.813 67.1907 111.826C67.1907 110.839 66.3374 110.039 65.2847 110.039Z" fill="white" fill-opacity="0.3"/>
<path d="M220.597 122.558H17.8792C14.5864 122.558 11.917 125.061 11.917 128.148V148.274C11.917 151.361 14.5864 153.864 17.8792 153.864H220.597C223.889 153.864 226.559 151.361 226.559 148.274V128.148C226.559 125.061 223.889 122.558 220.597 122.558Z" fill="white" fill-opacity="0.1"/>
<path d="M38.1536 148.273H27.4215C26.7657 148.273 26.229 147.77 26.229 147.155V129.266C26.229 128.651 26.7657 128.148 27.4215 128.148H38.1536V148.273Z" stroke="white" stroke-opacity="0.6" stroke-width="0.821532" stroke-miterlimit="10" stroke-linecap="round" stroke-linejoin="round"/>
<path d="M48.8849 148.274H38.1529V128.149H48.8849C49.5407 128.149 50.0774 128.652 50.0774 129.267V147.156C50.0774 147.771 49.5407 148.274 48.8849 148.274Z" stroke="white" stroke-opacity="0.6" stroke-width="0.821532" stroke-miterlimit="10" stroke-linecap="round" stroke-linejoin="round"/>
<path d="M28.6137 138.212H35.7685" stroke="white" stroke-opacity="0.6" stroke-width="0.821532" stroke-miterlimit="10"/>
<path d="M28.6137 133.74H35.7685" stroke="white" stroke-opacity="0.6" stroke-width="0.821532" stroke-miterlimit="10"/>
<path d="M28.6137 142.684H35.7685" stroke="white" stroke-opacity="0.6" stroke-width="0.821532" stroke-miterlimit="10"/>
<path d="M40.5375 138.212H47.6923" stroke="white" stroke-opacity="0.6" stroke-width="0.821532" stroke-miterlimit="10"/>
<path d="M40.5375 133.74H47.6923" stroke="white" stroke-opacity="0.6" stroke-width="0.821532" stroke-miterlimit="10"/>
<path d="M117.753 136.424H66.2912C65.2387 136.424 64.3852 137.224 64.3852 138.211C64.3852 139.198 65.2387 139.998 66.2912 139.998H117.753C118.806 139.998 119.659 139.198 119.659 138.211C119.659 137.224 118.806 136.424 117.753 136.424Z" fill="white" fill-opacity="0.3"/>
<path d="M36.9646 167.278C34.1742 167.278 30.6565 169.2 30.7161 174.165L26.2802 179.555C26.1491 179.71 26.3041 179.912 26.5426 179.912L29.4998 181.288C29.6548 182.316 30.2272 185.312 30.5372 186.811C30.6447 187.28 35.5337 186.922 35.5337 186.922L36.9646 189.64" stroke="white" stroke-opacity="0.6" stroke-width="0.821532" stroke-miterlimit="10" stroke-linecap="round" stroke-linejoin="round"/>
<path fill-rule="evenodd" clip-rule="evenodd" d="M42.7441 167.504C42.8771 167.156 42.6834 166.77 42.3114 166.646C41.9393 166.522 41.5298 166.703 41.3968 167.051L40.1805 170.239C40.0472 170.587 40.2409 170.971 40.613 171.097C40.985 171.221 41.3945 171.039 41.5278 170.69L42.7441 167.504ZM50.1348 170.879C50.4512 170.657 50.5156 170.237 50.2789 169.94C50.042 169.645 49.5937 169.584 49.2774 169.806L45.1991 172.668C44.8828 172.89 44.8184 173.311 45.0551 173.607C45.292 173.904 45.7403 173.964 46.0566 173.742L50.1348 170.879ZM45.4679 178.263C45.4968 177.894 45.8397 177.616 46.2337 177.644L50.1331 177.912C50.5273 177.94 50.8232 178.26 50.7943 178.63C50.7654 178.999 50.4224 179.277 50.0284 179.249L46.1291 178.982C45.7351 178.954 45.439 178.634 45.4679 178.263ZM37.8236 184.397C37.4286 184.397 37.1083 184.696 37.1083 185.067C37.1083 185.437 37.4286 185.738 37.8236 185.738H40.9599C41.355 185.738 41.6753 185.437 41.6753 185.067C41.6753 184.696 41.355 184.397 40.9599 184.397H37.8236ZM37.1083 182.183C37.1083 181.812 37.4286 181.511 37.8236 181.511H38.0125C36.4393 180.273 34.2854 177.556 36.0454 175.384C37.7625 173.27 41.0179 173.27 42.7352 175.384C44.4933 177.554 42.3541 180.275 40.7772 181.511H40.9599C41.355 181.511 41.6753 181.812 41.6753 182.183C41.6753 182.552 41.355 182.852 40.9599 182.852H37.8236C37.4286 182.852 37.1083 182.552 37.1083 182.183ZM40.116 181.511V178.652C40.4458 178.428 40.6603 178.064 40.6603 177.654C40.6603 176.974 40.073 176.424 39.3486 176.424C38.6242 176.424 38.037 176.974 38.037 177.654C38.037 178.106 38.2972 178.501 38.6851 178.715V181.511H40.116ZM39.323 177.544C39.3333 177.544 39.3435 177.543 39.3538 177.543H39.3486C39.3399 177.543 39.3313 177.543 39.323 177.544Z" fill="white" fill-opacity="0.6"/>
<path d="M141.902 176.19H66.8077C65.4698 176.19 64.3852 177.206 64.3852 178.462C64.3852 179.716 65.4698 180.732 66.8077 180.732H141.902C143.24 180.732 144.324 179.716 144.324 178.462C144.324 177.206 143.24 176.19 141.902 176.19Z" fill="white" fill-opacity="0.3"/>
<path d="M38.1569 207.534L26.2323 218.715L38.1569 229.896L50.0814 218.715L38.1569 207.534Z" stroke="white" stroke-opacity="0.6" stroke-width="0.821532" stroke-miterlimit="10" stroke-linecap="round" stroke-linejoin="round"/>
<path fill-rule="evenodd" clip-rule="evenodd" d="M35.1728 219.375C34.8934 219.112 34.4404 219.112 34.161 219.375C33.8816 219.636 33.8816 220.061 34.161 220.324L37.7747 223.711C37.909 223.837 38.0909 223.909 38.2807 223.909C38.4704 223.909 38.6524 223.837 38.7865 223.711L42.4002 220.324C42.6798 220.061 42.6798 219.636 42.4002 219.375C42.1209 219.112 41.6678 219.112 41.3884 219.375L38.9996 221.614V213.636C38.9996 213.265 38.6792 212.965 38.284 212.965C37.8888 212.965 37.5685 213.265 37.5685 213.636V221.621L35.1728 219.375Z" fill="white" fill-opacity="0.6"/>
<path d="M141.902 216.442H66.8077C65.4698 216.442 64.3852 217.458 64.3852 218.714C64.3852 219.968 65.4698 220.984 66.8077 220.984H141.902C143.24 220.984 144.324 219.968 144.324 218.714C144.324 217.458 143.24 216.442 141.902 216.442Z" fill="white" fill-opacity="0.3"/>
<path d="M51.866 299.216C51.866 306.317 45.7262 312.074 38.1527 312.074C30.5792 312.074 24.4395 306.317 24.4395 299.216C24.4395 292.115 30.5792 286.358 38.1527 286.358C45.7262 286.358 51.866 292.115 51.866 299.216Z" stroke="white" stroke-opacity="0.2" stroke-width="0.68461"/>
<path d="M117.753 297.429H66.2912C65.2387 297.429 64.3852 298.23 64.3852 299.216C64.3852 300.203 65.2387 301.003 66.2912 301.003H117.753C118.806 301.003 119.659 300.203 119.659 299.216C119.659 298.23 118.806 297.429 117.753 297.429Z" fill="white" fill-opacity="0.3"/>
<path d="M51.866 337.232C51.866 344.333 45.7262 350.09 38.1527 350.09C30.5792 350.09 24.4395 344.333 24.4395 337.232C24.4395 330.131 30.5792 324.374 38.1527 324.374C45.7262 324.374 51.866 330.131 51.866 337.232Z" stroke="white" stroke-opacity="0.2" stroke-width="0.68461"/>
<path d="M127.368 334.96H66.8077C65.4698 334.96 64.3852 335.976 64.3852 337.23C64.3852 338.486 65.4698 339.502 66.8077 339.502H127.368C128.705 339.502 129.79 338.486 129.79 337.23C129.79 335.976 128.705 334.96 127.368 334.96Z" fill="white" fill-opacity="0.3"/>
<path d="M51.866 375.245C51.866 382.348 45.7262 388.103 38.1527 388.103C30.5792 388.103 24.4395 382.348 24.4395 375.245C24.4395 368.144 30.5792 362.387 38.1527 362.387C45.7262 362.387 51.866 368.144 51.866 375.245Z" stroke="white" stroke-opacity="0.2" stroke-width="0.68461"/>
<path d="M134.635 372.975H66.8077C65.4698 372.975 64.3852 373.991 64.3852 375.245C64.3852 376.5 65.4698 377.517 66.8077 377.517H134.635C135.973 377.517 137.057 376.5 137.057 375.245C137.057 373.991 135.973 372.975 134.635 372.975Z" fill="white" fill-opacity="0.3"/>
<path d="M51.866 462.457C51.866 469.558 45.7262 475.315 38.1527 475.315C30.5792 475.315 24.4395 469.558 24.4395 462.457C24.4395 455.356 30.5792 449.599 38.1527 449.599C45.7262 449.599 51.866 455.356 51.866 462.457Z" stroke="white" stroke-opacity="0.2" stroke-width="0.68461"/>
<path d="M103.144 460.184H66.8077C65.4698 460.184 64.3852 461.201 64.3852 462.455C64.3852 463.71 65.4698 464.727 66.8077 464.727H103.144C104.482 464.727 105.566 463.71 105.566 462.455C105.566 461.201 104.482 460.184 103.144 460.184Z" fill="white" fill-opacity="0.3"/>
<path d="M51.866 500.473C51.866 507.574 45.7262 513.331 38.1527 513.331C30.5792 513.331 24.4395 507.574 24.4395 500.473C24.4395 493.372 30.5792 487.615 38.1527 487.615C45.7262 487.615 51.866 493.372 51.866 500.473Z" stroke="white" stroke-opacity="0.2" stroke-width="0.68461"/>
<path d="M117.753 498.686H66.2912C65.2387 498.686 64.3852 499.486 64.3852 500.473C64.3852 501.459 65.2387 502.259 66.2912 502.259H117.753C118.806 502.259 119.659 501.459 119.659 500.473C119.659 499.486 118.806 498.686 117.753 498.686Z" fill="white" fill-opacity="0.3"/>
<path d="M51.866 538.488C51.866 545.589 45.7262 551.346 38.1527 551.346C30.5792 551.346 24.4395 545.589 24.4395 538.488C24.4395 531.385 30.5792 525.63 38.1527 525.63C45.7262 525.63 51.866 531.385 51.866 538.488Z" stroke="white" stroke-opacity="0.2" stroke-width="0.68461"/>
<path d="M151.592 536.216H66.8077C65.4698 536.216 64.3852 537.232 64.3852 538.486C64.3852 539.741 65.4698 540.758 66.8077 540.758H151.592C152.929 540.758 154.014 539.741 154.014 538.486C154.014 537.232 152.929 536.216 151.592 536.216Z" fill="white" fill-opacity="0.3"/>
<path d="M38.157 29.0786C38.157 25.3735 34.9539 22.3701 31.0024 22.3701C27.051 22.3701 23.8477 25.3735 23.8477 29.0786C23.8477 32.7836 27.051 35.7872 31.0024 35.7872C34.9539 35.7872 38.157 32.7836 38.157 29.0786Z" fill="#EB6A5D"/>
<path d="M63.1989 29.0786C63.1989 25.3735 59.9955 22.3701 56.0441 22.3701C52.0926 22.3701 48.8895 25.3735 48.8895 29.0786C48.8895 32.7836 52.0926 35.7872 56.0441 35.7872C59.9955 35.7872 63.1989 32.7836 63.1989 29.0786Z" fill="#F3BE4F"/>
<path d="M88.2405 29.0786C88.2405 25.3735 85.0373 22.3701 81.0859 22.3701C77.1345 22.3701 73.9311 25.3735 73.9311 29.0786C73.9311 32.7836 77.1345 35.7872 81.0859 35.7872C85.0373 35.7872 88.2405 32.7836 88.2405 29.0786Z" fill="#64C354"/>
<path d="M238.473 0H1209.07C1215.66 0 1221 5.00585 1221 11.1809V687.819C1221 693.994 1215.66 699 1209.07 699H238.473V0Z" fill="#1A164A" fill-opacity="0.63"/>
<mask id="mask1_24_794" style="mask-type:alpha" maskUnits="userSpaceOnUse" x="243" y="-5" width="984" height="700">
<path d="M243.852 -4.89954H1214.45C1221.04 -4.89954 1226.38 0.106316 1226.38 6.28136V682.92C1226.38 689.095 1221.04 694.1 1214.45 694.1H243.852V-4.89954Z" fill="#1A164A"/>
</mask>
<g mask="url(#mask1_24_794)">
<path fill-rule="evenodd" clip-rule="evenodd" d="M1133.04 255.743C1178.72 150.964 1254.25 -29.2609 1058.9 -134.107C863.55 -238.953 772.674 -171.818 687.308 -140.898C601.944 -109.977 390.777 -89.8443 422.539 35.1398C454.301 160.124 461.355 378.695 613.09 378.698C764.825 378.703 744.477 319.464 841.927 308.978C939.378 298.493 1087.36 360.521 1133.04 255.743Z" fill="url(#paint0_linear_24_794)"/>
<path fill-rule="evenodd" clip-rule="evenodd" d="M1133.04 255.743C1178.72 150.964 1254.25 -29.2609 1058.9 -134.107C863.55 -238.953 772.674 -171.818 687.308 -140.898C601.944 -109.977 390.777 -89.8443 422.539 35.1398C454.301 160.124 461.355 378.695 613.09 378.698C764.825 378.703 744.477 319.464 841.927 308.978C939.378 298.493 1087.36 360.521 1133.04 255.743Z" fill="#14BEFD"/>
<g filter="url(#filter0_d_24_794)">
<path fill-rule="evenodd" clip-rule="evenodd" d="M455.194 -89.5253C412.343 28.2576 341.972 230.667 563.644 333.794C785.316 436.922 880.388 357.69 971.925 318.54C1063.46 279.388 1293.81 244.389 1250.28 109.162C1206.74 -26.0643 1183.81 -265.509 1017.29 -256.241C850.76 -246.972 877.208 -183.203 770.986 -165.74C664.764 -148.278 498.044 -207.309 455.194 -89.5253Z" fill="url(#paint1_linear_24_794)"/>
</g>
<g opacity="0.5" filter="url(#filter1_d_24_794)">
<path opacity="0.5" fill-rule="evenodd" clip-rule="evenodd" d="M471.505 -108.599C429.546 6.73104 360.639 204.925 577.697 305.906C794.753 406.888 887.845 329.304 977.476 290.969C1067.11 252.633 1292.66 218.361 1250.03 85.9508C1207.4 -46.4598 1184.95 -280.918 1021.89 -271.844C858.833 -262.768 884.73 -200.327 780.721 -183.228C676.711 -166.128 513.463 -223.93 471.505 -108.599Z" stroke="url(#paint2_linear_24_794)" stroke-width="6.78117" stroke-linecap="round" stroke-dasharray="67.81 33.91"/>
</g>
<g opacity="0.2" filter="url(#filter2_d_24_794)">
<path opacity="0.2" fill-rule="evenodd" clip-rule="evenodd" d="M522.524 -88.4903C485.78 13.6893 425.511 189.306 621.283 280.595C817.056 371.884 900.034 303.613 980.224 270.191C1060.41 236.772 1262.72 207.938 1223.35 89.9738C1183.97 -27.9901 1161.9 -236.487 1015.52 -229.594C869.146 -222.702 892.915 -167.03 799.638 -152.584C706.362 -138.136 559.267 -190.67 522.524 -88.4903Z" stroke="url(#paint3_linear_24_794)" stroke-width="3.39059" stroke-linecap="round" stroke-dasharray="33.91 16.95"/>
</g>
<g filter="url(#filter3_d_24_794)">
<path fill-rule="evenodd" clip-rule="evenodd" d="M464.243 -150.557C420.89 -31.3949 349.695 173.383 573.962 277.719C798.229 382.054 894.415 301.895 987.024 262.285C1079.63 222.676 1312.68 187.267 1268.63 50.4566C1224.58 -86.3528 1201.39 -328.6 1032.92 -319.224C864.44 -309.848 891.196 -245.331 783.732 -227.665C676.267 -209.997 507.595 -269.719 464.243 -150.557Z" stroke="url(#paint4_linear_24_794)" stroke-width="10.1718" stroke-linecap="round" stroke-dasharray="67.81 33.91"/>
</g>
<path fill-rule="evenodd" clip-rule="evenodd" d="M998.02 43.6135C1007.24 43.6135 1014.71 36.6054 1014.71 27.9604C1014.71 19.3153 1007.24 12.3071 998.02 12.3071C988.799 12.3071 981.325 19.3153 981.325 27.9604C981.325 36.6054 988.799 43.6135 998.02 43.6135Z" fill="white" fill-opacity="0.1" stroke="white" stroke-opacity="0.3" stroke-width="0.821532"/>
<path d="M1009.95 27.9608C1009.95 29.1013 1009.77 30.2082 1009.42 31.2481C1008.48 29.3137 1006.41 27.9608 1003.99 27.9608C1000.69 27.9608 998.024 30.4653 998.024 33.5513C998.024 35.821 999.466 37.7664 1001.53 38.6498C1000.42 38.974 999.24 39.1417 998.024 39.1417C991.442 39.1417 986.099 34.1327 986.099 27.9608C986.099 21.789 991.442 16.7799 998.024 16.7799C1004.61 16.7799 1009.95 21.789 1009.95 27.9608Z" fill="#00CFFD" stroke="black" stroke-width="0.821532" stroke-miterlimit="10" stroke-linecap="round" stroke-linejoin="round"/>
<path d="M1001.52 38.6371C999.456 37.7537 998.024 35.8083 998.024 33.5498C998.024 32.3198 998.442 31.1907 999.168 30.2625C998.787 30.2179 998.405 30.1956 998.024 30.1956C994.113 30.1956 990.762 32.3982 989.283 35.5512C991.466 37.7537 994.566 39.1401 998.024 39.1401C999.241 39.1401 1000.41 38.9726 1001.52 38.6371Z" fill="white" stroke="black" stroke-width="0.821532" stroke-miterlimit="10" stroke-linecap="round"/>
<path d="M999.358 30.0178H999.37C1000.03 29.2576 1000.91 28.6538 1001.91 28.3071C1002.47 27.5692 1002.79 26.686 1002.79 25.7244C1002.79 23.2534 1000.66 21.2521 998.022 21.2521C995.387 21.2521 993.253 23.2534 993.253 25.7244C993.253 28.1954 995.387 30.1967 998.022 30.1967C998.487 30.1967 998.942 30.1297 999.37 30.0178" fill="white"/>
<path d="M999.358 30.0178H999.37M999.37 30.0178C1000.03 29.2576 1000.91 28.6538 1001.91 28.3071C1002.47 27.5692 1002.79 26.686 1002.79 25.7244C1002.79 23.2534 1000.66 21.2521 998.022 21.2521C995.387 21.2521 993.253 23.2534 993.253 25.7244C993.253 28.1954 995.387 30.1967 998.022 30.1967C998.487 30.1967 998.942 30.1297 999.37 30.0178Z" stroke="black" stroke-width="0.821532" stroke-miterlimit="10" stroke-linecap="round" stroke-linejoin="round"/>
<path d="M1003.98 39.1427C1007.28 39.1427 1009.95 36.6397 1009.95 33.5522C1009.95 30.4646 1007.28 27.9618 1003.98 27.9618C1000.69 27.9618 998.022 30.4646 998.022 33.5522C998.022 36.6397 1000.69 39.1427 1003.98 39.1427Z" fill="black" stroke="black" stroke-width="0.821532" stroke-miterlimit="10" stroke-linecap="round" stroke-linejoin="round"/>
<path d="M1001.12 32.8235L1003.26 34.836L1006.84 31.4818" stroke="#00CFFD" stroke-width="0.821532" stroke-miterlimit="10"/>
<path d="M1132.17 32.4935C1132.44 32.4864 1132.68 32.3941 1132.88 32.1953L1138.63 26.6737C1138.8 26.5176 1138.89 26.3188 1138.89 26.0846C1138.89 25.6162 1138.49 25.2401 1137.99 25.2401C1137.75 25.2401 1137.52 25.3324 1137.34 25.4955L1132.18 30.4707L1127 25.4955C1126.83 25.3394 1126.6 25.2401 1126.35 25.2401C1125.85 25.2401 1125.46 25.6162 1125.46 26.0846C1125.46 26.3188 1125.55 26.5176 1125.72 26.6737L1131.48 32.1953C1131.68 32.3941 1131.91 32.4935 1132.17 32.4935Z" fill="white"/>
<path d="M510.258 101.456H278.064C275.958 101.456 274.251 103.056 274.251 105.03V111.509C274.251 113.483 275.958 115.084 278.064 115.084H510.258C512.362 115.084 514.069 113.483 514.069 111.509V105.03C514.069 103.056 512.362 101.456 510.258 101.456Z" fill="white" fill-opacity="0.6"/>
<path d="M381.87 133.254H278.064C275.958 133.254 274.251 134.854 274.251 136.828V143.308C274.251 145.282 275.958 146.882 278.064 146.882H381.87C383.976 146.882 385.681 145.282 385.681 143.308V136.828C385.681 134.854 383.976 133.254 381.87 133.254Z" fill="white" fill-opacity="0.6"/>
<path d="M497.111 165.052H276.674C275.336 165.052 274.251 166.07 274.251 167.324C274.251 168.578 275.336 169.596 276.674 169.596H497.111C498.448 169.596 499.534 168.578 499.534 167.324C499.534 166.07 498.448 165.052 497.111 165.052Z" fill="white" fill-opacity="0.3"/>
<path d="M438.975 187.766H276.674C275.336 187.766 274.251 188.784 274.251 190.038C274.251 191.293 275.336 192.31 276.674 192.31H438.975C440.312 192.31 441.398 191.293 441.398 190.038C441.398 188.784 440.312 187.766 438.975 187.766Z" fill="white" fill-opacity="0.3"/>
<path d="M468.042 210.479H276.674C275.336 210.479 274.251 211.497 274.251 212.751C274.251 214.005 275.336 215.021 276.674 215.021H468.042C469.38 215.021 470.465 214.005 470.465 212.751C470.465 211.497 469.38 210.479 468.042 210.479Z" fill="white" fill-opacity="0.3"/>
<path d="M1056.62 79.407H985.149C983.043 79.407 981.336 81.0072 981.336 82.9812C981.336 84.9552 983.043 86.5556 985.149 86.5556H1056.62C1058.73 86.5556 1060.43 84.9552 1060.43 82.9812C1060.43 81.0072 1058.73 79.407 1056.62 79.407Z" fill="white" fill-opacity="0.6"/>
<path d="M1146.06 95.6405H983.759C982.421 95.6405 981.336 96.6575 981.336 97.9119C981.336 99.1664 982.421 100.183 983.759 100.183H1146.06C1147.4 100.183 1148.48 99.1664 1148.48 97.9119C1148.48 96.6575 1147.4 95.6405 1146.06 95.6405Z" fill="white" fill-opacity="0.3"/>
<path d="M1185.24 109.269H993.253C986.667 109.269 981.329 114.275 981.329 120.45V178.591C981.329 184.766 986.667 189.772 993.253 189.772H1185.24C1191.82 189.772 1197.16 184.766 1197.16 178.591V120.45C1197.16 114.275 1191.82 109.269 1185.24 109.269Z" fill="#5B0000" fill-opacity="0.22"/>
<path fill-rule="evenodd" clip-rule="evenodd" d="M1019.49 171.882C1032.66 171.882 1043.34 161.87 1043.34 149.52C1043.34 137.17 1032.66 127.158 1019.49 127.158C1006.32 127.158 995.641 137.17 995.641 149.52C995.641 161.87 1006.32 171.882 1019.49 171.882Z" fill="white" fill-opacity="0.1" stroke="white" stroke-opacity="0.3" stroke-width="0.821532"/>
<path d="M1024.26 149.52L1019.49 141.693L1014.72 149.52L1008.76 141.693L1009.95 156.228H1029.03L1030.22 141.693L1024.26 149.52Z" fill="#00CFFD" stroke="black" stroke-width="0.821532" stroke-miterlimit="10" stroke-linecap="round" stroke-linejoin="round"/>
<path fill-rule="evenodd" clip-rule="evenodd" d="M1030.82 159.583H1008.16C1007.83 159.583 1007.57 159.337 1007.57 159.024V156.787C1007.57 156.474 1007.83 156.228 1008.16 156.228H1030.82C1031.15 156.228 1031.41 156.474 1031.41 156.787V159.024C1031.41 159.337 1031.15 159.583 1030.82 159.583Z" fill="white" stroke="black" stroke-width="0.821532" stroke-miterlimit="10" stroke-linecap="round" stroke-linejoin="round"/>
<path d="M1008.76 141.694C1009.42 141.694 1009.95 141.194 1009.95 140.576C1009.95 139.959 1009.42 139.458 1008.76 139.458C1008.1 139.458 1007.57 139.959 1007.57 140.576C1007.57 141.194 1008.1 141.694 1008.76 141.694Z" stroke="black" stroke-width="0.821532" stroke-miterlimit="10" stroke-linecap="round" stroke-linejoin="round"/>
<path d="M1030.22 141.694C1030.88 141.694 1031.42 141.193 1031.42 140.575C1031.42 139.958 1030.88 139.457 1030.22 139.457C1029.56 139.457 1029.03 139.958 1029.03 140.575C1029.03 141.193 1029.56 141.694 1030.22 141.694Z" stroke="black" stroke-width="0.821532" stroke-miterlimit="10" stroke-linecap="round" stroke-linejoin="round"/>
<path d="M1019.5 141.694C1020.15 141.694 1020.69 141.193 1020.69 140.575C1020.69 139.958 1020.15 139.457 1019.5 139.457C1018.84 139.457 1018.3 139.958 1018.3 140.575C1018.3 141.193 1018.84 141.694 1019.5 141.694Z" stroke="black" stroke-width="0.821532" stroke-miterlimit="10" stroke-linecap="round" stroke-linejoin="round"/>
<path d="M1132.78 154.516H1057.68C1056.34 154.516 1055.26 155.533 1055.26 156.788C1055.26 158.042 1056.34 159.059 1057.68 159.059H1132.78C1134.12 159.059 1135.2 158.042 1135.2 156.788C1135.2 155.533 1134.12 154.516 1132.78 154.516Z" fill="white" fill-opacity="0.3"/>
<path d="M1171.52 163.532H1058.24C1056.6 163.532 1055.26 164.783 1055.26 166.326C1055.26 167.871 1056.6 169.122 1058.24 169.122H1171.52C1173.17 169.122 1174.51 167.871 1174.51 166.326C1174.51 164.783 1173.17 163.532 1171.52 163.532Z" fill="black" fill-opacity="0.2"/>
<path d="M1171.05 164.951H1060.19C1058.58 164.951 1057.27 165.683 1057.27 166.584C1057.27 167.486 1058.58 168.217 1060.19 168.217H1171.05C1172.67 168.217 1173.97 167.486 1173.97 166.584C1173.97 165.683 1172.67 164.951 1171.05 164.951Z" fill="#00CFFD" stroke="black" stroke-opacity="0.05" stroke-width="0.247119"/>
<path d="M1221 55.9228H238.473V56.4818H1221V55.9228Z" fill="white" fill-opacity="0.2"/>
<path d="M292.138 12.3031H257.558C254.924 12.3031 252.789 14.3055 252.789 16.7754V39.1374C252.789 41.6074 254.924 43.6096 257.558 43.6096H292.138C294.771 43.6096 296.907 41.6074 296.907 39.1374V16.7754C296.907 14.3055 294.771 12.3031 292.138 12.3031Z" fill="black" fill-opacity="0.2"/>
<path d="M268.367 35.2289H281.319C282.962 35.2289 283.817 34.4341 283.817 32.9152V24.2778C283.817 22.7591 282.962 21.9641 281.319 21.9641H268.367C266.732 21.9641 265.877 22.752 265.877 24.2778V32.9152C265.877 34.4341 266.732 35.2289 268.367 35.2289ZM268.467 33.8166C267.77 33.8166 267.383 33.4759 267.383 32.7875V24.4057C267.383 23.7172 267.77 23.3765 268.467 23.3765H271.917V33.8166H268.467ZM281.22 23.3765C281.917 23.3765 282.304 23.7172 282.304 24.4057V32.7875C282.304 33.4759 281.917 33.8166 281.22 33.8166H273.349V23.3765H281.22ZM270.435 25.9741C270.707 25.9741 270.933 25.7541 270.933 25.5128C270.933 25.2715 270.707 25.0587 270.435 25.0587H268.883C268.61 25.0587 268.383 25.2715 268.383 25.5128C268.383 25.7541 268.61 25.9741 268.883 25.9741H270.435ZM270.435 27.8832C270.707 27.8832 270.933 27.6704 270.933 27.422C270.933 27.1806 270.707 26.9677 270.435 26.9677H268.883C268.61 26.9677 268.383 27.1806 268.383 27.422C268.383 27.6704 268.61 27.8832 268.883 27.8832H270.435ZM270.435 29.7854C270.707 29.7854 270.933 29.5795 270.933 29.331C270.933 29.0898 270.707 28.884 270.435 28.884H268.883C268.61 28.884 268.383 29.0898 268.383 29.331C268.383 29.5795 268.61 29.7854 268.883 29.7854H270.435Z" fill="white"/>
<path d="M1201.93 12.3031H1170.92C1168.29 12.3031 1166.15 14.3055 1166.15 16.7754V39.1374C1166.15 41.6074 1168.29 43.6096 1170.92 43.6096H1201.93C1204.56 43.6096 1206.69 41.6074 1206.69 39.1374V16.7754C1206.69 14.3055 1204.56 12.3031 1201.93 12.3031Z" fill="black" fill-opacity="0.2"/>
<path d="M1186.42 35.9245C1190.71 35.9245 1194.25 32.603 1194.25 28.586C1194.25 24.5689 1190.7 21.2473 1186.41 21.2473C1182.12 21.2473 1178.59 24.5689 1178.59 28.586C1178.59 32.603 1182.13 35.9245 1186.42 35.9245ZM1186.42 34.4625C1182.94 34.4625 1180.17 31.8435 1180.17 28.586C1180.17 25.3283 1182.94 22.7165 1186.41 22.7165C1189.88 22.7165 1192.68 25.3283 1192.69 28.586C1192.69 31.8435 1189.89 34.4625 1186.42 34.4625ZM1186.25 29.9982C1186.67 29.9982 1186.93 29.7712 1186.95 29.4802C1186.95 29.4517 1186.95 29.4233 1186.96 29.3951C1186.98 29.033 1187.25 28.7846 1187.74 28.4865C1188.49 28.0324 1188.97 27.6206 1188.97 26.8045C1188.97 25.6193 1187.83 24.945 1186.48 24.945C1185.19 24.945 1184.31 25.4986 1184.07 26.1586C1184.03 26.2865 1184 26.407 1184 26.5349C1184 26.8754 1184.28 27.0956 1184.63 27.0956C1185.08 27.0956 1185.18 26.8826 1185.41 26.6412C1185.65 26.2865 1185.97 26.0805 1186.42 26.0805C1187.02 26.0805 1187.41 26.4 1187.41 26.8754C1187.41 27.3084 1187.09 27.5426 1186.45 27.9543C1185.91 28.3092 1185.52 28.6711 1185.52 29.3098V29.3879C1185.52 29.7924 1185.78 29.9982 1186.25 29.9982ZM1186.24 32.1772C1186.72 32.1772 1187.12 31.8507 1187.12 31.3964C1187.12 30.9422 1186.73 30.6157 1186.24 30.6157C1185.74 30.6157 1185.34 30.9494 1185.34 31.3964C1185.34 31.8435 1185.74 32.1772 1186.24 32.1772Z" fill="white"/>
</g>
</g>
<path d="M1035.05 26C1034.86 25.4261 1034.61 24.9119 1034.3 24.4574C1034 23.9972 1033.64 23.6051 1033.22 23.2812C1032.81 22.9574 1032.34 22.7102 1031.81 22.5398C1031.28 22.3693 1030.7 22.2841 1030.07 22.2841C1029.03 22.2841 1028.09 22.5511 1027.25 23.0852C1026.4 23.6193 1025.73 24.4062 1025.23 25.446C1024.73 26.4858 1024.48 27.7614 1024.48 29.2727C1024.48 30.7841 1024.73 32.0597 1025.24 33.0994C1025.74 34.1392 1026.43 34.9261 1027.29 35.4602C1028.15 35.9943 1029.13 36.2614 1030.2 36.2614C1031.2 36.2614 1032.09 36.0483 1032.85 35.6222C1033.61 35.1903 1034.21 34.5824 1034.64 33.7983C1035.07 33.0085 1035.28 32.0795 1035.28 31.0114L1035.93 31.1477H1030.68V29.2727H1037.33V31.1477C1037.33 32.5852 1037.02 33.8352 1036.41 34.8977C1035.8 35.9602 1034.96 36.7841 1033.89 37.3693C1032.82 37.9489 1031.59 38.2386 1030.2 38.2386C1028.66 38.2386 1027.3 37.875 1026.13 37.1477C1024.97 36.4205 1024.06 35.3864 1023.4 34.0455C1022.76 32.7045 1022.43 31.1136 1022.43 29.2727C1022.43 27.892 1022.62 26.6506 1022.99 25.5483C1023.36 24.4403 1023.89 23.4972 1024.57 22.7188C1025.25 21.9403 1026.06 21.3438 1026.99 20.929C1027.92 20.5142 1028.95 20.3068 1030.07 20.3068C1030.99 20.3068 1031.85 20.446 1032.64 20.7244C1033.44 20.9972 1034.16 21.3864 1034.78 21.892C1035.41 22.392 1035.94 22.9915 1036.36 23.6903C1036.78 24.3835 1037.07 25.1534 1037.23 26H1035.05ZM1041.5 38V24.9091H1043.51V38H1041.5ZM1042.52 22.7273C1042.13 22.7273 1041.79 22.5938 1041.51 22.3267C1041.23 22.0597 1041.09 21.7386 1041.09 21.3636C1041.09 20.9886 1041.23 20.6676 1041.51 20.4006C1041.79 20.1335 1042.13 20 1042.52 20C1042.91 20 1043.25 20.1335 1043.53 20.4006C1043.81 20.6676 1043.95 20.9886 1043.95 21.3636C1043.95 21.7386 1043.81 22.0597 1043.53 22.3267C1043.25 22.5938 1042.91 22.7273 1042.52 22.7273ZM1051.04 38.3068C1050.22 38.3068 1049.46 38.1506 1048.79 37.8381C1048.11 37.5199 1047.57 37.0625 1047.18 36.4659C1046.78 35.8636 1046.58 35.1364 1046.58 34.2841C1046.58 33.5341 1046.73 32.9261 1047.02 32.4602C1047.32 31.9886 1047.71 31.6193 1048.21 31.3523C1048.7 31.0852 1049.25 30.8864 1049.84 30.7557C1050.45 30.6193 1051.05 30.5114 1051.66 30.4318C1052.45 30.3295 1053.1 30.2528 1053.59 30.2017C1054.09 30.1449 1054.46 30.0511 1054.68 29.9205C1054.92 29.7898 1055.03 29.5625 1055.03 29.2386V29.1705C1055.03 28.3295 1054.8 27.6761 1054.34 27.2102C1053.89 26.7443 1053.2 26.5114 1052.27 26.5114C1051.31 26.5114 1050.56 26.7216 1050.01 27.142C1049.47 27.5625 1049.08 28.0114 1048.86 28.4886L1046.95 27.8068C1047.29 27.0114 1047.75 26.392 1048.32 25.9489C1048.89 25.5 1049.52 25.1875 1050.19 25.0114C1050.87 24.8295 1051.54 24.7386 1052.2 24.7386C1052.62 24.7386 1053.11 24.7898 1053.65 24.892C1054.2 24.9886 1054.74 25.1903 1055.25 25.4972C1055.76 25.804 1056.19 26.267 1056.53 26.8864C1056.87 27.5057 1057.04 28.3352 1057.04 29.375V38H1055.03V36.2273H1054.93C1054.79 36.5114 1054.57 36.8153 1054.25 37.1392C1053.93 37.4631 1053.51 37.7386 1052.98 37.9659C1052.45 38.1932 1051.81 38.3068 1051.04 38.3068ZM1051.35 36.5C1052.15 36.5 1052.82 36.3438 1053.36 36.0312C1053.91 35.7188 1054.33 35.3153 1054.61 34.821C1054.89 34.3267 1055.03 33.8068 1055.03 33.2614V31.4205C1054.95 31.5227 1054.76 31.6165 1054.47 31.7017C1054.19 31.7812 1053.86 31.8523 1053.48 31.9148C1053.11 31.9716 1052.75 32.0227 1052.4 32.0682C1052.05 32.108 1051.77 32.142 1051.56 32.1705C1051.03 32.2386 1050.54 32.3494 1050.09 32.5028C1049.64 32.6506 1049.28 32.875 1049 33.1761C1048.73 33.4716 1048.59 33.875 1048.59 34.3864C1048.59 35.0852 1048.85 35.6136 1049.37 35.9716C1049.89 36.3239 1050.55 36.5 1051.35 36.5ZM1062.73 30.125V38H1060.72V24.9091H1062.66V26.9545H1062.83C1063.14 26.2898 1063.6 25.7557 1064.23 25.3523C1064.85 24.9432 1065.66 24.7386 1066.65 24.7386C1067.53 24.7386 1068.31 24.9205 1068.97 25.2841C1069.64 25.642 1070.16 26.1875 1070.53 26.9205C1070.89 27.6477 1071.08 28.5682 1071.08 29.6818V38H1069.07V29.8182C1069.07 28.7898 1068.8 27.9886 1068.27 27.4148C1067.73 26.8352 1067 26.5455 1066.07 26.5455C1065.43 26.5455 1064.85 26.6847 1064.35 26.9631C1063.85 27.2415 1063.45 27.6477 1063.16 28.1818C1062.87 28.7159 1062.73 29.3636 1062.73 30.125ZM1074.75 38V24.9091H1076.7V26.8864H1076.83C1077.07 26.2386 1077.5 25.7131 1078.13 25.3097C1078.75 24.9062 1079.46 24.7045 1080.24 24.7045C1080.39 24.7045 1080.58 24.7074 1080.8 24.7131C1081.02 24.7187 1081.19 24.7273 1081.3 24.7386V26.7841C1081.23 26.767 1081.08 26.7415 1080.83 26.7074C1080.59 26.6676 1080.34 26.6477 1080.07 26.6477C1079.44 26.6477 1078.87 26.7812 1078.37 27.0483C1077.87 27.3097 1077.48 27.6733 1077.19 28.1392C1076.91 28.5994 1076.77 29.125 1076.77 29.7159V38H1074.75ZM1088.6 38.2727C1087.42 38.2727 1086.39 37.9915 1085.49 37.429C1084.61 36.8665 1083.91 36.0795 1083.41 35.0682C1082.92 34.0568 1082.67 32.875 1082.67 31.5227C1082.67 30.1591 1082.92 28.9687 1083.41 27.9517C1083.91 26.9347 1084.61 26.1449 1085.49 25.5824C1086.39 25.0199 1087.42 24.7386 1088.6 24.7386C1089.79 24.7386 1090.82 25.0199 1091.71 25.5824C1092.6 26.1449 1093.29 26.9347 1093.79 27.9517C1094.29 28.9687 1094.54 30.1591 1094.54 31.5227C1094.54 32.875 1094.29 34.0568 1093.79 35.0682C1093.29 36.0795 1092.6 36.8665 1091.71 37.429C1090.82 37.9915 1089.79 38.2727 1088.6 38.2727ZM1088.6 36.4659C1089.5 36.4659 1090.24 36.2358 1090.82 35.7756C1091.4 35.3153 1091.83 34.7102 1092.11 33.9602C1092.39 33.2102 1092.52 32.3977 1092.52 31.5227C1092.52 30.6477 1092.39 29.8324 1092.11 29.0767C1091.83 28.321 1091.4 27.7102 1090.82 27.2443C1090.24 26.7784 1089.5 26.5455 1088.6 26.5455C1087.71 26.5455 1086.97 26.7784 1086.39 27.2443C1085.81 27.7102 1085.38 28.321 1085.1 29.0767C1084.82 29.8324 1084.68 30.6477 1084.68 31.5227C1084.68 32.3977 1084.82 33.2102 1085.1 33.9602C1085.38 34.7102 1085.81 35.3153 1086.39 35.7756C1086.97 36.2358 1087.71 36.4659 1088.6 36.4659ZM1098.43 42.9091C1098.09 42.9091 1097.79 42.8807 1097.52 42.8239C1097.25 42.7727 1097.07 42.7216 1096.97 42.6705L1097.48 40.8977C1097.97 41.0227 1098.4 41.0682 1098.77 41.0341C1099.15 41 1099.48 40.8324 1099.77 40.5312C1100.07 40.2358 1100.34 39.7557 1100.58 39.0909L1100.96 38.0682L1096.12 24.9091H1098.3L1101.91 35.3409H1102.05L1105.66 24.9091H1107.84L1102.29 39.9091C1102.04 40.5852 1101.73 41.1449 1101.36 41.5881C1100.99 42.0369 1100.56 42.3693 1100.07 42.5852C1099.59 42.8011 1099.04 42.9091 1098.43 42.9091Z" fill="white"/>
</g>
<defs>
<filter id="filter0_d_24_794" x="349.087" y="-317.108" width="967.214" height="762.366" filterUnits="userSpaceOnUse" color-interpolation-filters="sRGB">
<feFlood flood-opacity="0" result="BackgroundImageFix"/>
<feColorMatrix in="SourceAlpha" type="matrix" values="0 0 0 0 0 0 0 0 0 0 0 0 0 0 0 0 0 0 127 0" result="hardAlpha"/>
<feOffset/>
<feGaussianBlur stdDeviation="30.3029"/>
<feColorMatrix type="matrix" values="0 0 0 0 0.129427 0 0 0 0 0.224219 0 0 0 0 0.4375 0 0 0 0.3 0"/>
<feBlend mode="normal" in2="BackgroundImageFix" result="effect1_dropShadow_24_794"/>
<feBlend mode="normal" in="SourceGraphic" in2="effect1_dropShadow_24_794" result="shape"/>
</filter>
<filter id="filter1_d_24_794" x="362.955" y="-336.096" width="956.377" height="755.798" filterUnits="userSpaceOnUse" color-interpolation-filters="sRGB">
<feFlood flood-opacity="0" result="BackgroundImageFix"/>
<feColorMatrix in="SourceAlpha" type="matrix" values="0 0 0 0 0 0 0 0 0 0 0 0 0 0 0 0 0 0 127 0" result="hardAlpha"/>
<feOffset/>
<feGaussianBlur stdDeviation="30.3029"/>
<feColorMatrix type="matrix" values="0 0 0 0 0.129427 0 0 0 0 0.224219 0 0 0 0 0.4375 0 0 0 0.3 0"/>
<feBlend mode="normal" in2="BackgroundImageFix" result="effect1_dropShadow_24_794"/>
<feBlend mode="normal" in="SourceGraphic" in2="effect1_dropShadow_24_794" result="shape"/>
</filter>
<filter id="filter2_d_24_794" x="421.79" y="-292.062" width="868.838" height="680.575" filterUnits="userSpaceOnUse" color-interpolation-filters="sRGB">
<feFlood flood-opacity="0" result="BackgroundImageFix"/>
<feColorMatrix in="SourceAlpha" type="matrix" values="0 0 0 0 0 0 0 0 0 0 0 0 0 0 0 0 0 0 127 0" result="hardAlpha"/>
<feOffset/>
<feGaussianBlur stdDeviation="30.3029"/>
<feColorMatrix type="matrix" values="0 0 0 0 0.129427 0 0 0 0 0.224219 0 0 0 0 0.4375 0 0 0 0.3 0"/>
<feBlend mode="normal" in2="BackgroundImageFix" result="effect1_dropShadow_24_794"/>
<feBlend mode="normal" in="SourceGraphic" in2="effect1_dropShadow_24_794" result="shape"/>
</filter>
<filter id="filter3_d_24_794" x="352.517" y="-385.18" width="987.288" height="780.044" filterUnits="userSpaceOnUse" color-interpolation-filters="sRGB">
<feFlood flood-opacity="0" result="BackgroundImageFix"/>
<feColorMatrix in="SourceAlpha" type="matrix" values="0 0 0 0 0 0 0 0 0 0 0 0 0 0 0 0 0 0 127 0" result="hardAlpha"/>
<feOffset/>
<feGaussianBlur stdDeviation="30.3029"/>
<feColorMatrix type="matrix" values="0 0 0 0 0.129427 0 0 0 0 0.224219 0 0 0 0 0.4375 0 0 0 0.3 0"/>
<feBlend mode="normal" in2="BackgroundImageFix" result="effect1_dropShadow_24_794"/>
<feBlend mode="normal" in="SourceGraphic" in2="effect1_dropShadow_24_794" result="shape"/>
</filter>
<linearGradient id="paint0_linear_24_794" x1="275.446" y1="199.414" x2="891.475" y2="616.179" gradientUnits="userSpaceOnUse">
<stop stop-color="#E1467C"/>
<stop offset="1" stop-color="#FF9CE3"/>
</linearGradient>
<linearGradient id="paint1_linear_24_794" x1="1208.31" y1="244.742" x2="501.932" y2="-172.714" gradientUnits="userSpaceOnUse">
<stop stop-color="#E0695B"/>
<stop offset="1" stop-color="#3913B8"/>
</linearGradient>
<linearGradient id="paint2_linear_24_794" x1="1208.94" y1="218.707" x2="517.271" y2="-190.055" gradientUnits="userSpaceOnUse">
<stop stop-color="#FF5A3D"/>
<stop offset="1" stop-color="#2FB8FF"/>
</linearGradient>
<linearGradient id="paint3_linear_24_794" x1="1187.53" y1="207.644" x2="563.365" y2="-161.221" gradientUnits="userSpaceOnUse">
<stop stop-color="#FF5A3D"/>
<stop offset="1" stop-color="#2FB8FF"/>
</linearGradient>
<linearGradient id="paint4_linear_24_794" x1="1226.18" y1="187.624" x2="511.53" y2="-234.718" gradientUnits="userSpaceOnUse">
<stop stop-color="#FF6C6C"/>
<stop offset="1" stop-color="#2FB8FF"/>
</linearGradient>
<clipPath id="clip0_24_794">
<rect width="1221" height="699" fill="white"/>
</clipPath>
</defs>
</svg>
