<svg width="1026" height="627" viewBox="0 0 1026 627" fill="none" xmlns="http://www.w3.org/2000/svg">
<g filter="url(#filter0_d_14_2)">
<path d="M1003.45 4.34454H40.003C30.1856 4.34454 22.2274 12.0382 22.2274 21.5292V605.816C22.2274 615.307 30.1856 623.001 40.003 623.001H1003.45C1013.27 623.001 1021.23 615.307 1021.23 605.816V21.5292C1021.23 12.0382 1013.27 4.34454 1003.45 4.34454Z" fill="black" fill-opacity="0.2"/>
<path d="M413.662 4.00061H22.6155C12.793 4.00061 4.82959 11.6993 4.82959 21.1953V605.462C4.82959 614.958 12.793 622.657 22.6155 622.657H413.662C423.487 622.657 431.448 614.958 431.448 605.462V21.1953C431.448 11.6993 423.487 4.00061 413.662 4.00061Z" fill="#491EB8"/>
<path d="M510.395 160.619C526.104 160.619 538.837 148.309 538.837 133.123C538.837 117.938 526.104 105.627 510.395 105.627C494.689 105.627 481.953 117.938 481.953 133.123C481.953 148.309 494.689 160.619 510.395 160.619Z" fill="black" fill-opacity="0.2"/>
<path d="M872.134 145.001H578.833C576.377 145.001 574.388 146.924 574.388 149.297C574.388 151.67 576.377 153.593 578.833 153.593H872.134C874.588 153.593 876.577 151.67 876.577 149.297C876.577 146.924 874.588 145.001 872.134 145.001Z" fill="black" fill-opacity="0.2"/>
<path d="M819.94 167.341H577.999C576.005 167.341 574.388 168.904 574.388 170.832C574.388 172.76 576.005 174.323 577.999 174.323H819.94C821.934 174.323 823.549 172.76 823.549 170.832C823.549 168.904 821.934 167.341 819.94 167.341Z" fill="white" fill-opacity="0.3"/>
<path d="M742.04 188.072H577.999C576.005 188.072 574.388 189.635 574.388 191.563C574.388 193.491 576.005 195.054 577.999 195.054H742.04C744.034 195.054 745.652 193.491 745.652 191.563C745.652 189.635 744.034 188.072 742.04 188.072Z" fill="white" fill-opacity="0.3"/>
<path d="M510.395 346.373C526.104 346.373 538.837 334.06 538.837 318.876C538.837 303.69 526.104 291.38 510.395 291.38C494.689 291.38 481.953 303.69 481.953 318.876C481.953 334.06 494.689 346.373 510.395 346.373Z" fill="black" fill-opacity="0.2"/>
<path d="M889.91 318.477H578.833C576.377 318.477 574.388 320.4 574.388 322.772C574.388 325.147 576.377 327.069 578.833 327.069H889.91C892.364 327.069 894.353 325.147 894.353 322.772C894.353 320.4 892.364 318.477 889.91 318.477Z" fill="black" fill-opacity="0.2"/>
<path d="M765.229 340.818H578.282C576.133 340.818 574.388 342.502 574.388 344.583C574.388 346.661 576.133 348.348 578.282 348.348H765.229C767.379 348.348 769.124 346.661 769.124 344.583C769.124 342.502 767.379 340.818 765.229 340.818Z" fill="white" fill-opacity="0.3"/>
<path d="M843.124 362.096H578.282C576.133 362.096 574.388 363.781 574.388 365.861C574.388 367.94 576.133 369.627 578.282 369.627H843.124C845.274 369.627 847.019 367.94 847.019 365.861C847.019 363.781 845.274 362.096 843.124 362.096Z" fill="white" fill-opacity="0.3"/>
<path d="M510.395 522.084C526.104 522.084 538.837 509.772 538.837 494.588C538.837 479.401 526.104 467.092 510.395 467.092C494.689 467.092 481.953 479.401 481.953 494.588C481.953 509.772 494.689 522.084 510.395 522.084Z" fill="black" fill-opacity="0.2"/>
<path d="M889.91 493.049H578.833C576.377 493.049 574.388 494.972 574.388 497.344C574.388 499.719 576.377 501.642 578.833 501.642H889.91C892.364 501.642 894.353 499.719 894.353 497.344C894.353 494.972 892.364 493.049 889.91 493.049Z" fill="black" fill-opacity="0.2"/>
<path d="M885.215 494.703H578.83C577.396 494.703 576.234 495.827 576.234 497.214C576.234 498.6 577.396 499.724 578.83 499.724H885.215C886.649 499.724 887.812 498.6 887.812 497.214C887.812 495.827 886.649 494.703 885.215 494.703Z" fill="#00CFFD" stroke="black" stroke-opacity="0.05" stroke-width="0.247119"/>
<path d="M819.94 515.39H577.999C576.005 515.39 574.388 516.951 574.388 518.879C574.388 520.809 576.005 522.37 577.999 522.37H819.94C821.934 522.37 823.549 520.809 823.549 518.879C823.549 516.951 821.934 515.39 819.94 515.39Z" fill="white" fill-opacity="0.3"/>
<path d="M690.11 536.119H577.999C576.005 536.119 574.388 537.683 574.388 539.61C574.388 541.538 576.005 543.102 577.999 543.102H690.11C692.105 543.102 693.722 541.538 693.722 539.61C693.722 537.683 692.105 536.119 690.11 536.119Z" fill="white" fill-opacity="0.3"/>
</g>
<path d="M867.607 147.044H576.801C575.367 147.044 574.205 148.168 574.205 149.555C574.205 150.941 575.367 152.065 576.801 152.065H867.607C869.041 152.065 870.204 150.941 870.204 149.555C870.204 148.168 869.041 147.044 867.607 147.044Z" fill="#00CFFD" stroke="black" stroke-opacity="0.05" stroke-width="0.247119"/>
<path d="M883.186 320.246H576.801C575.367 320.246 574.205 321.37 574.205 322.756C574.205 324.143 575.367 325.266 576.801 325.266H883.186C884.62 325.266 885.783 324.143 885.783 322.756C885.783 321.37 884.62 320.246 883.186 320.246Z" fill="#00CFFD" stroke="black" stroke-opacity="0.05" stroke-width="0.247119"/>
<path opacity="0.3" d="M317.169 64.9442C347.746 76.0048 371.469 107.117 377.635 146.01C382.821 178.807 374.209 219.091 323.952 237.809C272.654 256.899 129.211 266.082 102.587 212.928C75.9624 159.774 81.5015 91.6118 136.186 67.4322C174.525 50.4794 257.431 43.3319 317.169 64.9442Z" fill="#E6E6E6"/>
<path d="M189.657 206.029C187.423 206.029 185.614 204.005 185.614 201.505V182.279C185.609 164.334 191.296 146.969 201.665 133.276C203.75 130.69 207.554 131.6 208.513 134.912C208.931 136.355 208.675 137.936 207.831 139.123C198.708 151.162 193.693 166.428 193.68 182.211V201.437C193.713 203.954 191.905 206.018 189.657 206.029Z" fill="#68E1FD"/>
<path d="M276.343 206.029C274.109 206.029 272.3 204.005 272.3 201.505V182.279C272.286 166.496 267.271 151.229 258.149 139.19C256.114 136.527 257.419 132.397 260.499 131.758C261.928 131.46 263.39 132.04 264.335 133.276C274.689 146.951 280.376 164.289 280.386 182.211V201.437C280.42 203.963 278.599 206.03 276.343 206.029Z" fill="#68E1FD"/>
<g opacity="0.08">
<path d="M189.656 206.029C188.584 206.029 187.556 205.553 186.798 204.704C186.039 203.856 185.613 202.705 185.613 201.505V182.279C185.608 164.333 191.297 146.968 201.665 133.276C202.369 132.403 203.348 131.871 204.397 131.792C205.445 131.714 206.48 132.095 207.281 132.855C208.083 133.615 208.588 134.694 208.691 135.864C208.793 137.034 208.485 138.203 207.831 139.123C198.707 151.161 193.693 166.428 193.679 182.212V201.438C193.688 202.035 193.59 202.629 193.391 203.184C193.193 203.74 192.898 204.245 192.524 204.672C192.15 205.099 191.704 205.439 191.212 205.672C190.719 205.905 190.191 206.026 189.656 206.029Z" fill="black"/>
<path d="M276.343 206.03C275.27 206.03 274.242 205.553 273.484 204.705C272.725 203.856 272.299 202.706 272.299 201.506V182.28C272.286 166.496 267.272 151.229 258.148 139.191C257.447 138.273 257.101 137.081 257.185 135.878C257.269 134.674 257.778 133.557 258.598 132.773C259.418 131.988 260.484 131.601 261.559 131.695C262.635 131.79 263.633 132.358 264.334 133.276C274.689 146.951 280.376 164.289 280.386 182.212V201.438C280.394 202.038 280.295 202.633 280.096 203.19C279.896 203.747 279.599 204.253 279.223 204.681C278.847 205.108 278.398 205.447 277.904 205.679C277.409 205.91 276.879 206.03 276.343 206.03Z" fill="black"/>
</g>
<path d="M326.661 98.1486V86.907H321.607V98.2165C318.706 98.2911 316.39 100.943 316.391 104.188V130.324C316.391 133.631 318.782 136.312 321.738 136.318H326.499C329.457 136.318 331.856 133.634 331.856 130.324V104.12C331.857 100.883 329.552 98.2346 326.661 98.1486Z" fill="#68E1FD"/>
<path opacity="0.08" d="M326.661 98.1486V86.907H321.607V98.2165C318.706 98.2911 316.39 100.943 316.391 104.188V130.324C316.391 133.631 318.782 136.312 321.738 136.318H326.499C329.457 136.318 331.856 133.634 331.856 130.324V104.12C331.857 100.883 329.552 98.2346 326.661 98.1486Z" fill="black"/>
<path d="M144.373 98.1486V86.907H139.319V98.2165C136.418 98.2911 134.102 100.943 134.103 104.188V130.324C134.103 133.634 136.501 136.318 139.461 136.318H144.211C147.17 136.318 149.569 133.634 149.569 130.324V104.12C149.57 100.883 147.265 98.2346 144.373 98.1486Z" fill="#68E1FD"/>
<path opacity="0.08" d="M144.373 98.1486V86.907H139.319V98.2165C136.418 98.2911 134.102 100.943 134.103 104.188V130.324C134.103 133.634 136.501 136.318 139.461 136.318H144.211C147.17 136.318 149.569 133.634 149.569 130.324V104.12C149.57 100.883 147.265 98.2346 144.373 98.1486Z" fill="black"/>
<path d="M165.802 89.9041H117.921C116.782 89.9041 115.859 90.937 115.859 92.2112C115.859 93.4854 116.782 94.5183 117.921 94.5183H165.802C166.941 94.5183 167.864 93.4854 167.864 92.2112C167.864 90.937 166.941 89.9041 165.802 89.9041Z" fill="#68E1FD"/>
<path d="M348.089 89.9041H300.208C299.069 89.9041 298.146 90.937 298.146 92.2112C298.146 93.4854 299.069 94.5183 300.208 94.5183H348.089C349.228 94.5183 350.152 93.4854 350.152 92.2112C350.152 90.937 349.228 89.9041 348.089 89.9041Z" fill="#68E1FD"/>
<path d="M219.92 145.999L222.478 154.39C223.023 156.188 225.156 157.466 227.612 157.466H229.25V160.859H236.75V157.466H238.388C240.844 157.466 242.977 156.188 243.522 154.39L246.08 145.999H219.92Z" fill="#68E1FD"/>
<path opacity="0.08" d="M219.92 145.999L222.478 154.39C223.023 156.188 225.156 157.466 227.612 157.466H229.25V160.859H236.75V157.466H238.388C240.844 157.466 242.977 156.188 243.522 154.39L246.08 145.999H219.92Z" fill="black"/>
<path d="M249.89 160.803H216.11V183.455H249.89V160.803Z" fill="#CCCCCC"/>
<path d="M233 179.124C236.768 179.124 239.823 175.706 239.823 171.49C239.823 167.274 236.768 163.856 233 163.856C229.232 163.856 226.177 167.274 226.177 171.49C226.177 175.706 229.232 179.124 233 179.124Z" fill="#E6E6E6"/>
<path d="M280.548 94.5183H185.452C178.111 94.5183 172.16 101.177 172.16 109.39V131.127C172.16 139.34 178.111 145.999 185.452 145.999H280.548C287.889 145.999 293.84 139.34 293.84 131.127V109.39C293.84 101.177 287.889 94.5183 280.548 94.5183Z" fill="#68E1FD"/>
<path d="M133.507 109.243H197.895V126.569H133.507C129.451 126.564 126.164 122.886 126.159 118.347V117.442C126.175 112.913 129.458 109.25 133.507 109.243Z" fill="#68E1FD"/>
<path d="M332.492 126.58H268.104V109.254H332.492C336.555 109.254 339.85 112.94 339.85 117.488V118.381C339.833 122.915 336.543 126.58 332.492 126.58Z" fill="#68E1FD"/>
<path d="M219.192 79.2167H246.808C253.076 79.2167 258.159 84.903 258.159 91.9171V94.5183H207.841V91.9171C207.841 84.903 212.923 79.2167 219.192 79.2167Z" fill="#68E1FD"/>
<path opacity="0.08" d="M219.192 79.2167H246.808C253.076 79.2167 258.159 84.903 258.159 91.9171V94.5183H207.841V91.9171C207.841 84.903 212.923 79.2167 219.192 79.2167Z" fill="black"/>
<path opacity="0.46" d="M264.881 105.488H201.119C198.769 105.488 196.864 107.62 196.864 110.25V110.261C196.864 112.891 198.769 115.022 201.119 115.022H264.881C267.231 115.022 269.136 112.891 269.136 110.261V110.25C269.136 107.62 267.231 105.488 264.881 105.488Z" fill="white"/>
<path opacity="0.45" d="M233 298.744C281.132 298.744 320.151 292.328 320.151 284.415C320.151 276.501 281.132 270.086 233 270.086C184.868 270.086 145.849 276.501 145.849 284.415C145.849 292.328 184.868 298.744 233 298.744Z" fill="#E6E6E6"/>
<path d="M572.573 115.08H567.459L575.539 97.6255H582.016L585.459 115.08H580.346L578.215 102.432H578.079L572.573 115.08ZM572.539 108.194H582.153L581.667 111.739H572.053L572.539 108.194ZM587.14 115.08L589.459 97.6255H602.038L601.518 101.444H593.677L593.294 104.444H600.487L599.967 108.262H592.774L592.39 111.262H600.197L599.686 115.08H587.14ZM602.07 115.08L604.388 97.6255H611.922C613.218 97.6255 614.317 97.8613 615.221 98.3329C616.13 98.8045 616.795 99.4835 617.215 100.37C617.641 101.256 617.772 102.319 617.607 103.557C617.442 104.807 617.025 105.861 616.354 106.719C615.689 107.572 614.829 108.219 613.772 108.662C612.715 109.1 611.522 109.319 610.192 109.319H605.692L606.187 105.637H609.732C610.289 105.637 610.775 105.569 611.189 105.432C611.604 105.29 611.937 105.069 612.187 104.768C612.442 104.461 612.601 104.057 612.664 103.557C612.726 103.057 612.672 102.651 612.502 102.339C612.331 102.02 612.059 101.787 611.684 101.64C611.309 101.486 610.849 101.41 610.303 101.41H608.633L606.809 115.08H602.07ZM613.354 107.069L616.661 115.08H611.513L608.309 107.069H613.354ZM636.314 106.6C636.059 108.503 635.476 110.103 634.567 111.398C633.664 112.694 632.545 113.671 631.209 114.33C629.88 114.989 628.442 115.319 626.897 115.319C625.272 115.319 623.849 114.966 622.627 114.262C621.405 113.552 620.499 112.518 619.908 111.16C619.317 109.796 619.153 108.131 619.414 106.165C619.664 104.256 620.241 102.651 621.144 101.35C622.047 100.043 623.17 99.0574 624.51 98.3926C625.857 97.7221 627.306 97.3869 628.857 97.3869C630.476 97.3869 631.894 97.742 633.11 98.4522C634.331 99.1625 635.235 100.202 635.82 101.572C636.411 102.941 636.576 104.617 636.314 106.6ZM631.516 106.165C631.647 105.154 631.63 104.305 631.465 103.617C631.3 102.924 630.988 102.401 630.528 102.049C630.073 101.691 629.471 101.512 628.721 101.512C627.891 101.512 627.164 101.714 626.539 102.117C625.914 102.515 625.403 103.094 625.005 103.856C624.613 104.611 624.349 105.526 624.212 106.6C624.064 107.617 624.079 108.466 624.255 109.148C624.431 109.824 624.752 110.336 625.218 110.682C625.689 111.023 626.295 111.194 627.033 111.194C627.851 111.194 628.57 110.998 629.189 110.606C629.809 110.214 630.314 109.643 630.706 108.893C631.104 108.143 631.374 107.233 631.516 106.165ZM644.49 97.6255H650.388L653.132 107.512H653.336L658.706 97.6255H664.604L662.285 115.08H657.649L658.979 104.989H658.842L653.652 114.944H650.856L648.308 104.921H648.172L646.808 115.08H642.172L644.49 97.6255ZM669.065 115.08H663.952L672.031 97.6255H678.508L681.952 115.08H676.838L674.707 102.432H674.571L669.065 115.08ZM669.031 108.194H678.645L678.159 111.739H668.545L669.031 108.194ZM695.699 103.387C695.665 103.086 695.591 102.822 695.477 102.594C695.363 102.361 695.207 102.165 695.008 102.006C694.815 101.841 694.577 101.719 694.292 101.64C694.008 101.555 693.682 101.512 693.312 101.512C692.517 101.512 691.801 101.702 691.165 102.083C690.534 102.464 690.011 103.012 689.596 103.728C689.187 104.444 688.917 105.307 688.787 106.319C688.65 107.341 688.667 108.216 688.838 108.944C689.008 109.671 689.338 110.228 689.827 110.614C690.315 111.001 690.966 111.194 691.778 111.194C692.506 111.194 693.128 111.089 693.645 110.878C694.167 110.668 694.579 110.37 694.881 109.983C695.182 109.597 695.363 109.143 695.426 108.62L696.244 108.705H692.256L692.699 105.33H700.437L700.122 107.751C699.912 109.341 699.395 110.702 698.571 111.833C697.747 112.958 696.704 113.822 695.443 114.424C694.187 115.02 692.795 115.319 691.267 115.319C689.574 115.319 688.133 114.958 686.946 114.236C685.758 113.515 684.892 112.486 684.346 111.151C683.807 109.816 683.659 108.228 683.903 106.387C684.091 104.944 684.48 103.665 685.071 102.552C685.662 101.438 686.398 100.498 687.278 99.7306C688.165 98.9579 689.148 98.3755 690.227 97.9835C691.312 97.5858 692.443 97.3869 693.619 97.3869C694.653 97.3869 695.594 97.5346 696.44 97.8301C697.292 98.1199 698.025 98.5346 698.639 99.0744C699.253 99.6085 699.721 100.242 700.045 100.975C700.369 101.708 700.517 102.512 700.488 103.387H695.699ZM718.772 97.6255L716.454 115.08H712.499L707.42 105.91H707.317L706.09 115.08H701.351L703.67 97.6255H707.692L712.695 106.762H712.831L714.033 97.6255H718.772ZM718.695 115.08L721.013 97.6255H733.593L733.073 101.444H725.232L724.849 104.444H732.042L731.522 108.262H724.329L723.945 111.262H731.752L731.241 115.08H718.695ZM734.946 101.444L735.466 97.6255H750.636L750.116 101.444H744.866L743.068 115.08H738.398L740.196 101.444H734.946ZM757.158 97.6255L754.84 115.08H750.101L752.42 97.6255H757.158ZM774.813 104.171H770.057C770.08 103.768 770.043 103.404 769.947 103.08C769.856 102.756 769.708 102.478 769.503 102.245C769.299 102.006 769.035 101.824 768.711 101.699C768.393 101.574 768.015 101.512 767.577 101.512C766.753 101.512 766.023 101.716 765.387 102.126C764.756 102.529 764.239 103.108 763.836 103.864C763.438 104.62 763.165 105.523 763.018 106.574C762.893 107.603 762.918 108.461 763.094 109.148C763.276 109.83 763.6 110.341 764.066 110.682C764.532 111.023 765.126 111.194 765.847 111.194C766.319 111.194 766.748 111.137 767.134 111.023C767.526 110.91 767.873 110.748 768.174 110.537C768.481 110.322 768.739 110.066 768.949 109.77C769.165 109.469 769.324 109.137 769.427 108.773L774.208 108.782C774.055 109.52 773.753 110.273 773.305 111.04C772.861 111.807 772.279 112.515 771.557 113.162C770.836 113.805 769.978 114.324 768.983 114.722C767.989 115.12 766.864 115.319 765.608 115.319C763.983 115.319 762.569 114.964 761.364 114.253C760.165 113.543 759.279 112.506 758.705 111.143C758.131 109.773 757.972 108.103 758.228 106.131C758.483 104.216 759.06 102.611 759.958 101.316C760.861 100.015 761.975 99.0346 763.299 98.3755C764.628 97.7164 766.055 97.3869 767.577 97.3869C768.708 97.3869 769.728 97.5375 770.637 97.8386C771.552 98.1397 772.327 98.5801 772.964 99.1596C773.6 99.7335 774.077 100.441 774.395 101.282C774.719 102.123 774.858 103.086 774.813 104.171Z" fill="white"/>
<path d="M569.745 292.119L572.063 274.664H579.597C580.893 274.664 581.992 274.92 582.896 275.431C583.799 275.943 584.458 276.661 584.873 277.588C585.288 278.514 585.416 279.596 585.256 280.835C585.092 282.096 584.671 283.184 583.995 284.099C583.325 285.008 582.455 285.71 581.387 286.204C580.325 286.693 579.126 286.937 577.791 286.937H573.291L573.776 283.255H577.322C577.89 283.255 578.384 283.159 578.805 282.965C579.231 282.767 579.572 282.488 579.828 282.13C580.083 281.767 580.245 281.335 580.313 280.835C580.376 280.335 580.325 279.909 580.16 279.556C579.995 279.198 579.728 278.926 579.359 278.738C578.995 278.545 578.535 278.448 577.978 278.448H576.308L574.484 292.119H569.745ZM585.495 292.119L587.813 274.664H592.552L591.649 281.482H597.921L598.825 274.664H603.563L601.245 292.119H596.506L597.401 285.301H591.129L590.234 292.119H585.495ZM621.521 283.639C621.265 285.542 620.683 287.142 619.774 288.437C618.87 289.732 617.751 290.71 616.416 291.369C615.086 292.028 613.649 292.357 612.103 292.357C610.478 292.357 609.055 292.005 607.833 291.301C606.612 290.59 605.705 289.556 605.114 288.198C604.524 286.835 604.359 285.17 604.62 283.204C604.87 281.295 605.447 279.69 606.35 278.389C607.254 277.082 608.376 276.096 609.717 275.431C611.063 274.761 612.512 274.426 614.063 274.426C615.683 274.426 617.1 274.781 618.316 275.491C619.538 276.201 620.441 277.241 621.026 278.61C621.617 279.98 621.782 281.656 621.521 283.639ZM616.722 283.204C616.853 282.193 616.836 281.343 616.671 280.656C616.506 279.963 616.194 279.44 615.734 279.088C615.279 278.73 614.677 278.551 613.927 278.551C613.097 278.551 612.37 278.752 611.745 279.156C611.12 279.553 610.609 280.133 610.211 280.894C609.819 281.65 609.555 282.565 609.418 283.639C609.271 284.656 609.285 285.505 609.461 286.187C609.637 286.863 609.958 287.374 610.424 287.721C610.896 288.062 611.501 288.232 612.239 288.232C613.058 288.232 613.776 288.036 614.396 287.644C615.015 287.252 615.521 286.681 615.913 285.931C616.31 285.181 616.58 284.272 616.722 283.204ZM623.097 278.482L623.617 274.664H638.788L638.268 278.482H633.018L631.22 292.119H626.549L628.347 278.482H623.097ZM655.458 283.639C655.203 285.542 654.62 287.142 653.711 288.437C652.808 289.732 651.688 290.71 650.353 291.369C649.024 292.028 647.586 292.357 646.041 292.357C644.416 292.357 642.992 292.005 641.771 291.301C640.549 290.59 639.643 289.556 639.052 288.198C638.461 286.835 638.296 285.17 638.558 283.204C638.808 281.295 639.384 279.69 640.288 278.389C641.191 277.082 642.313 276.096 643.654 275.431C645.001 274.761 646.45 274.426 648.001 274.426C649.62 274.426 651.038 274.781 652.254 275.491C653.475 276.201 654.379 277.241 654.964 278.61C655.555 279.98 655.72 281.656 655.458 283.639ZM650.66 283.204C650.791 282.193 650.774 281.343 650.609 280.656C650.444 279.963 650.131 279.44 649.671 279.088C649.217 278.73 648.614 278.551 647.864 278.551C647.035 278.551 646.308 278.752 645.683 279.156C645.058 279.553 644.546 280.133 644.149 280.894C643.756 281.65 643.492 282.565 643.356 283.639C643.208 284.656 643.222 285.505 643.399 286.187C643.575 286.863 643.896 287.374 644.362 287.721C644.833 288.062 645.438 288.232 646.177 288.232C646.995 288.232 647.714 288.036 648.333 287.644C648.953 287.252 649.458 286.681 649.85 285.931C650.248 285.181 650.518 284.272 650.66 283.204ZM669.421 280.426C669.386 280.124 669.313 279.86 669.199 279.633C669.085 279.4 668.929 279.204 668.73 279.045C668.537 278.88 668.298 278.758 668.014 278.678C667.73 278.593 667.404 278.551 667.034 278.551C666.239 278.551 665.523 278.741 664.886 279.122C664.256 279.502 663.733 280.051 663.318 280.767C662.909 281.482 662.639 282.346 662.509 283.357C662.372 284.38 662.389 285.255 662.56 285.982C662.73 286.71 663.06 287.267 663.548 287.653C664.037 288.039 664.688 288.232 665.5 288.232C666.227 288.232 666.85 288.127 667.367 287.917C667.889 287.707 668.301 287.409 668.602 287.022C668.904 286.636 669.085 286.181 669.148 285.659L669.966 285.744H665.977L666.421 282.369H674.159L673.844 284.789C673.634 286.38 673.117 287.741 672.293 288.872C671.469 289.997 670.426 290.86 669.165 291.463C667.909 292.059 666.517 292.357 664.989 292.357C663.296 292.357 661.855 291.997 660.668 291.275C659.48 290.553 658.614 289.525 658.068 288.19C657.529 286.855 657.381 285.267 657.625 283.426C657.813 281.982 658.202 280.704 658.793 279.59C659.384 278.477 660.119 277.536 661 276.769C661.886 275.997 662.869 275.414 663.949 275.022C665.034 274.624 666.165 274.426 667.341 274.426C668.375 274.426 669.315 274.573 670.162 274.869C671.014 275.159 671.747 275.573 672.361 276.113C672.975 276.647 673.443 277.281 673.767 278.014C674.091 278.747 674.239 279.551 674.21 280.426H669.421ZM675.073 292.119L677.391 274.664H684.926C686.221 274.664 687.32 274.9 688.224 275.372C689.133 275.843 689.798 276.522 690.218 277.409C690.644 278.295 690.775 279.357 690.61 280.596C690.445 281.846 690.028 282.9 689.357 283.758C688.693 284.61 687.832 285.258 686.775 285.701C685.718 286.139 684.525 286.357 683.195 286.357H678.695L679.19 282.676H682.735C683.292 282.676 683.778 282.607 684.193 282.471C684.607 282.329 684.94 282.107 685.19 281.806C685.445 281.499 685.604 281.096 685.667 280.596C685.729 280.096 685.676 279.69 685.505 279.377C685.335 279.059 685.062 278.826 684.687 278.678C684.312 278.525 683.852 278.448 683.306 278.448H681.636L679.812 292.119H675.073ZM686.357 284.107L689.664 292.119H684.516L681.312 284.107H686.357ZM695.826 292.119H690.712L698.792 274.664H705.269L708.712 292.119H703.599L701.468 279.471H701.332L695.826 292.119ZM695.792 285.232H705.406L704.92 288.778H695.306L695.792 285.232ZM712.712 274.664H718.609L721.354 284.551H721.558L726.928 274.664H732.825L730.507 292.119H725.871L727.2 282.028H727.064L721.874 291.982H719.078L716.53 281.96H716.394L715.03 292.119H710.394L712.712 274.664ZM735.071 274.664H740.969L743.713 284.551H743.918L749.287 274.664H755.185L752.867 292.119H748.23L749.56 282.028H749.423L744.233 291.982H741.438L738.889 281.96H738.753L737.389 292.119H732.753L735.071 274.664ZM755.112 292.119L757.43 274.664H770.01L769.49 278.482H761.649L761.266 281.482H768.459L767.939 285.301H760.746L760.362 288.301H768.169L767.658 292.119H755.112ZM771.363 278.482L771.883 274.664H787.053L786.533 278.482H781.283L779.485 292.119H774.815L776.613 278.482H771.363ZM786.519 292.119L788.837 274.664H796.371C797.666 274.664 798.766 274.9 799.669 275.372C800.578 275.843 801.243 276.522 801.663 277.409C802.09 278.295 802.22 279.357 802.055 280.596C801.891 281.846 801.473 282.9 800.803 283.758C800.138 284.61 799.277 285.258 798.22 285.701C797.163 286.139 795.97 286.357 794.641 286.357H790.141L790.635 282.676H794.18C794.737 282.676 795.223 282.607 795.638 282.471C796.053 282.329 796.385 282.107 796.635 281.806C796.891 281.499 797.05 281.096 797.112 280.596C797.175 280.096 797.121 279.69 796.95 279.377C796.78 279.059 796.507 278.826 796.132 278.678C795.757 278.525 795.297 278.448 794.752 278.448H793.081L791.257 292.119H786.519ZM797.803 284.107L801.109 292.119H795.962L792.757 284.107H797.803ZM803.519 274.664H808.803L811.258 281.755H811.42L815.758 274.664H821.042L813.048 286.63L812.315 292.119H807.61L808.343 286.63L803.519 274.664Z" fill="white"/>
<path d="M575.894 461.445L578.212 443.99H582.95L581.144 457.627H588.2L587.689 461.445H575.894ZM596.661 443.99L594.343 461.445H589.604L591.923 443.99H596.661ZM603.381 461.445H596.589L598.907 443.99H605.47C607.265 443.99 608.774 444.348 609.995 445.064C611.222 445.78 612.109 446.805 612.654 448.141C613.205 449.476 613.359 451.064 613.114 452.905C612.876 454.7 612.325 456.234 611.461 457.507C610.603 458.78 609.484 459.754 608.103 460.43C606.728 461.107 605.154 461.445 603.381 461.445ZM601.856 457.422H603.595C604.458 457.422 605.222 457.274 605.887 456.979C606.552 456.678 607.1 456.172 607.532 455.462C607.964 454.746 608.259 453.769 608.418 452.53C608.578 451.337 608.541 450.416 608.308 449.769C608.08 449.115 607.674 448.661 607.089 448.405C606.504 448.144 605.756 448.013 604.847 448.013H603.109L601.856 457.422ZM617.623 461.445H612.509L620.589 443.99H627.066L630.509 461.445H625.396L623.265 448.797H623.129L617.623 461.445ZM617.589 454.558H627.203L626.717 458.104H617.103L617.589 454.558ZM632.19 461.445L634.509 443.99H642.043C643.338 443.99 644.438 444.226 645.341 444.698C646.25 445.169 646.915 445.848 647.335 446.734C647.761 447.621 647.892 448.683 647.727 449.922C647.563 451.172 647.145 452.226 646.475 453.084C645.81 453.936 644.949 454.584 643.892 455.027C642.835 455.465 641.642 455.683 640.313 455.683H635.813L636.307 452.002H639.852C640.409 452.002 640.895 451.933 641.31 451.797C641.725 451.655 642.057 451.433 642.307 451.132C642.563 450.825 642.722 450.422 642.784 449.922C642.847 449.422 642.793 449.016 642.622 448.703C642.452 448.385 642.179 448.152 641.804 448.004C641.429 447.851 640.969 447.774 640.423 447.774H638.753L636.929 461.445H632.19ZM643.475 453.433L646.781 461.445H641.634L638.429 453.433H643.475Z" fill="white"/>
<path d="M222.41 573.42L82.0563 486.086C77.5892 483.446 73.7547 479.105 78.1124 476.268L218.974 390.751C221.09 389.369 224.3 388.465 226.448 389.78L373.783 479.845C378.25 482.575 379.054 490.206 374.564 492.944L240.934 573.289C238.125 575.006 234.938 575.922 231.689 575.945C228.44 575.968 225.241 575.098 222.41 573.42Z" fill="#4887ED"/>
<path d="M243.137 532.972L209.313 548.094L231.899 558.907L269.049 536.327L264.738 528.935" fill="url(#paint0_linear_14_2)"/>
<path d="M347.925 488.577L317.546 499.02L333.884 508.139L351.838 492.269" fill="url(#paint1_linear_14_2)"/>
<path d="M194.366 503.115L158.481 480.749C157.341 480.075 156.357 478.965 157.473 478.241L193.483 456.385C193.758 456.18 194.076 456.049 194.41 456.006C194.744 455.963 195.083 456.009 195.397 456.138L233.062 479.162C234.202 479.861 234.413 481.81 233.265 482.509L199.091 503.066C198.375 503.505 197.563 503.741 196.734 503.75C195.906 503.758 195.09 503.54 194.366 503.115Z" fill="#3974C9"/>
<path opacity="0.2" d="M194.366 503.115L158.481 480.749C157.341 480.075 156.357 478.965 157.473 478.241L193.483 456.385C193.758 456.18 194.076 456.049 194.41 456.006C194.744 455.963 195.083 456.009 195.397 456.138L233.062 479.162C234.202 479.861 234.413 481.81 233.265 482.509L199.091 503.066C198.375 503.505 197.563 503.741 196.734 503.75C195.906 503.758 195.09 503.54 194.366 503.115Z" fill="#3974C9"/>
<path d="M155.81 503.115L119.956 480.749C118.816 480.075 117.832 478.965 118.949 478.241L154.959 456.385C155.233 456.18 155.552 456.049 155.886 456.006C156.22 455.963 156.559 456.009 156.872 456.138L194.538 479.162C195.678 479.861 195.889 481.81 194.741 482.509L160.566 503.066C159.847 503.511 159.029 503.75 158.194 503.759C157.36 503.768 156.538 503.546 155.81 503.115Z" fill="#3974C9"/>
<path d="M202.878 452.866L150.554 420.303C148.891 419.317 147.43 417.705 149.086 416.644L201.597 384.781C201.997 384.481 202.461 384.29 202.948 384.227C203.435 384.164 203.929 384.23 204.385 384.419L259.31 417.985C260.974 419.004 261.278 421.849 259.607 422.869L209.774 452.816C208.728 453.455 207.542 453.795 206.332 453.804C205.123 453.812 203.933 453.489 202.878 452.866Z" fill="#68E1FD"/>
<path opacity="0.2" d="M202.878 452.866L150.554 420.303C148.891 419.317 147.43 417.705 149.086 416.644L201.597 384.781C201.997 384.481 202.461 384.29 202.948 384.227C203.435 384.164 203.929 384.23 204.385 384.419L259.31 417.985C260.974 419.004 261.278 421.849 259.607 422.869L209.774 452.816C208.728 453.455 207.542 453.795 206.332 453.804C205.123 453.812 203.933 453.489 202.878 452.866Z" fill="#4C4C4C"/>
<path d="M146.704 452.866L94.3798 420.303C92.7163 419.317 91.256 417.705 92.9116 416.644L145.423 384.781C145.822 384.481 146.287 384.29 146.774 384.227C147.26 384.164 147.755 384.23 148.211 384.419L203.136 417.985C204.799 419.004 205.104 421.849 203.433 422.869L153.6 452.816C152.554 453.455 151.367 453.795 150.158 453.804C148.949 453.812 147.758 453.489 146.704 452.866Z" fill="#68E1FD"/>
<path d="M315.805 466.442L285.425 476.876L301.763 486.004L319.717 470.125" fill="url(#paint2_linear_14_2)"/>
<path d="M319.717 470.035V435.886H312.689V470.331C315.125 471.046 317.663 471.194 319.717 470.035Z" fill="#A83F1E"/>
<path d="M316.906 435.984V470.956C317.887 470.889 318.844 470.61 319.717 470.134V435.984H316.906Z" fill="#7F2B14"/>
<path d="M326.012 439.084C330.401 438.862 336.024 437.201 334.376 432.046C333.4 429.003 330.409 426.29 328.495 423.905C326.582 421.52 327.004 419.876 324.872 417.516C326.691 417.598 329.331 417.236 329.776 415.337C330.167 413.692 321.685 403.488 318.007 399.352C317.604 398.894 317.051 398.614 316.46 398.568C315.869 398.522 315.283 398.714 314.821 399.105C310.447 402.772 299.28 412.525 300.842 415.337C301.779 417.031 303.684 417.623 305.387 417.804C301.373 422.047 296.796 427.342 296.328 432.991C295.922 437.925 300.678 438.542 305.113 438.295C302.052 442.217 293.735 453.384 295.633 456.78C296.632 458.572 299.858 459.156 301.771 459.559C305.909 460.442 310.123 460.869 314.344 460.834C318.584 460.897 322.806 460.228 326.84 458.852C329.076 458.117 331.15 456.918 332.939 455.324C334.891 453.392 333.798 451.336 332.533 449.396C330.338 445.959 328.175 442.521 326.012 439.084Z" fill="#52AF45"/>
<path d="M324.879 417.516C324.879 417.516 319.538 417.146 315.813 417.253L334.649 433.575C334.649 433.575 335.149 431.676 331.822 427.819C329.253 424.583 326.932 421.138 324.879 417.516Z" fill="#0D5B23"/>
<path d="M326.012 439.084H315.078L332.994 455.283C333.535 454.871 333.913 454.264 334.057 453.577C334.201 452.891 334.1 452.172 333.775 451.558C332.556 449.355 326.012 439.084 326.012 439.084Z" fill="#0D5B23"/>
<path d="M352.471 492.179V469.311H347.738V492.385C349.281 492.964 350.978 492.89 352.471 492.179Z" fill="#A83F1E"/>
<path d="M350.589 469.402V492.82C351.245 492.776 351.886 492.588 352.471 492.269V469.402H350.589Z" fill="#7F2B14"/>
<path d="M356.688 471.449C359.632 471.301 363.396 470.191 362.295 466.738C361.647 464.698 359.64 462.898 358.39 461.286C357.141 459.674 357.391 458.589 355.962 457.002C357.18 457.059 358.945 456.813 359.249 455.546C359.515 454.436 353.83 447.611 351.37 444.857C351.101 444.549 350.73 444.361 350.334 444.33C349.938 444.3 349.546 444.429 349.237 444.692C346.309 447.159 338.827 453.68 339.866 455.563C340.212 456.073 340.669 456.489 341.199 456.775C341.729 457.061 342.316 457.21 342.912 457.207C340.217 460.044 337.156 463.596 336.844 467.379C336.578 470.668 339.757 471.096 342.732 470.931C340.678 473.554 335.11 481.037 336.383 483.307C337.055 484.507 339.218 484.902 340.491 485.165C343.265 485.746 346.089 486.021 348.917 485.987C351.761 486.03 354.592 485.58 357.297 484.655C358.795 484.162 360.184 483.357 361.381 482.287C362.686 480.996 361.959 479.615 361.108 478.315C359.585 476.054 358.14 473.752 356.688 471.449Z" fill="#52AF45"/>
<path d="M355.93 457.002C355.93 457.002 352.354 456.755 349.854 456.829L362.483 467.757C362.483 467.757 362.818 466.491 360.585 463.884C358.863 461.723 357.307 459.422 355.93 457.002Z" fill="#0D5B23"/>
<path d="M356.688 471.449H349.339L361.335 482.303C361.691 482.029 361.941 481.628 362.039 481.175C362.137 480.721 362.075 480.246 361.866 479.837C361.069 478.332 356.688 471.449 356.688 471.449Z" fill="#0D5B23"/>
<path d="M250.259 412.451C249.806 411.941 248.463 412.064 246.674 412.574C246.011 411.028 245.362 409.474 244.761 407.903C244.574 407.418 243.816 407.632 243.98 408.125C244.589 409.696 245.23 411.258 245.893 412.804C239.997 414.695 230.321 420.04 229.493 422.186C228.408 425.13 233.968 431.717 233.968 431.717L254.312 420.846C254.312 420.846 252.157 414.589 250.259 412.451Z" fill="#7F252B"/>
<path d="M244.519 417.911C244.208 417.911 243.91 418.041 243.691 418.272C243.471 418.503 243.347 418.817 243.347 419.144C243.347 419.471 243.471 419.785 243.691 420.016C243.91 420.247 244.208 420.377 244.519 420.377C244.83 420.377 245.128 420.247 245.347 420.016C245.567 419.785 245.69 419.471 245.69 419.144C245.69 418.817 245.567 418.503 245.347 418.272C245.128 418.041 244.83 417.911 244.519 417.911Z" fill="white"/>
<path d="M247.408 416.521C247.098 416.521 246.8 416.651 246.58 416.882C246.36 417.113 246.237 417.427 246.237 417.754C246.237 418.081 246.36 418.395 246.58 418.626C246.8 418.858 247.098 418.988 247.408 418.988C247.719 418.988 248.017 418.858 248.237 418.626C248.456 418.395 248.58 418.081 248.58 417.754C248.58 417.427 248.456 417.113 248.237 416.882C248.017 416.651 247.719 416.521 247.408 416.521Z" fill="white"/>
<path d="M243.277 414.934L243.199 414.975C242.746 415.213 243.144 415.921 243.589 415.682L243.667 415.641C244.112 415.403 243.722 414.695 243.277 414.934Z" fill="white"/>
<path d="M244.363 414.72C244.363 414.829 244.404 414.934 244.477 415.011C244.55 415.088 244.649 415.131 244.753 415.131C244.856 415.131 244.955 415.088 245.029 415.011C245.102 414.934 245.143 414.829 245.143 414.72C245.143 414.611 245.102 414.506 245.029 414.429C244.955 414.352 244.856 414.309 244.753 414.309C244.649 414.309 244.55 414.352 244.477 414.429C244.404 414.506 244.363 414.611 244.363 414.72Z" fill="white"/>
<path d="M246.4 414.054L246.361 413.972C246.119 413.503 245.448 413.922 245.69 414.383L245.729 414.465C245.956 414.934 246.627 414.523 246.4 414.054Z" fill="white"/>
<path d="M235.257 420.328C234.946 420.328 234.648 420.458 234.428 420.689C234.209 420.921 234.085 421.234 234.085 421.561C234.085 421.889 234.209 422.202 234.428 422.434C234.648 422.665 234.946 422.795 235.257 422.795C235.567 422.795 235.865 422.665 236.085 422.434C236.305 422.202 236.428 421.889 236.428 421.561C236.428 421.234 236.305 420.921 236.085 420.689C235.865 420.458 235.567 420.328 235.257 420.328Z" fill="white"/>
<path d="M236.889 424.102C236.578 424.102 236.28 424.232 236.061 424.464C235.841 424.695 235.717 425.009 235.717 425.336C235.717 425.663 235.841 425.977 236.061 426.208C236.28 426.439 236.578 426.569 236.889 426.569C237.2 426.569 237.498 426.439 237.717 426.208C237.937 425.977 238.06 425.663 238.06 425.336C238.06 425.009 237.937 424.695 237.717 424.464C237.498 424.232 237.2 424.102 236.889 424.102Z" fill="white"/>
<path d="M238.451 420.986C238.14 420.986 237.842 421.116 237.623 421.347C237.403 421.578 237.279 421.892 237.279 422.219C237.279 422.546 237.403 422.86 237.623 423.091C237.842 423.323 238.14 423.453 238.451 423.453C238.762 423.453 239.059 423.323 239.279 423.091C239.499 422.86 239.622 422.546 239.622 422.219C239.622 421.892 239.499 421.578 239.279 421.347C239.059 421.116 238.762 420.986 238.451 420.986Z" fill="white"/>
<path d="M233.461 423.444C233.15 423.444 232.852 423.574 232.632 423.806C232.413 424.037 232.289 424.351 232.289 424.678C232.289 425.005 232.413 425.319 232.632 425.55C232.852 425.781 233.15 425.911 233.461 425.911C233.771 425.911 234.069 425.781 234.289 425.55C234.509 425.319 234.632 425.005 234.632 424.678C234.632 424.351 234.509 424.037 234.289 423.806C234.069 423.574 233.771 423.444 233.461 423.444Z" fill="white"/>
<path d="M262.801 533.795L266.706 532.668L266.097 527.734C266.097 527.734 261.856 528.442 262.801 533.795Z" fill="#42210B"/>
<path d="M268.049 519.364C268.049 519.364 269.416 536.138 269.041 536.327C268.666 536.516 264.957 536.862 264.957 536.566C264.957 536.27 264.738 528.935 264.738 528.935C264.738 528.935 262.871 532.175 262.785 533.795C262.785 533.795 258.342 531.13 257.514 528.992C256.686 526.855 259.412 517.916 260.458 517.415" fill="#7F252B"/>
<path d="M253.211 542.585L257.592 537.692L254.742 533.885C254.742 533.885 252.063 540.06 253.211 542.585Z" fill="#42210B"/>
<path d="M259.716 523.187L261.762 543.308C261.762 543.308 258.459 544.484 257.858 544.394C257.04 544.089 256.254 543.695 255.515 543.218L254.781 536.5C254.781 536.5 252.883 538.498 253.219 542.577C253.219 542.297 250.196 541.244 249.806 541.055C248.586 540.496 247.415 539.825 246.307 539.049C245.144 538.227 240.841 534.452 243.183 532.956C245.151 531.69 251.555 532.29 251.555 532.29L251.649 523.977" fill="#7F252B"/>
<path d="M267.362 451.09C267.346 451.018 267.346 450.944 267.363 450.872C267.379 450.801 267.41 450.734 267.455 450.677C267.499 450.621 267.556 450.576 267.62 450.546C267.683 450.516 267.753 450.503 267.823 450.506C267.388 448.741 266.661 447.071 265.675 445.572L247.182 443.27C247.182 443.27 243.465 457.191 242.035 481.185C240.926 499.785 249.595 527.447 249.595 527.447C249.595 527.447 258.568 529.839 262.871 525.177L262.7 521.173C264.933 521.154 267.162 520.962 269.369 520.597C271.587 497.499 269.9 474.072 267.362 451.09Z" fill="#52AF45"/>
<path d="M263.379 524.1L261.036 506.832C260.294 501.339 259.162 495.69 259.131 490.123C259.099 484.556 260.919 479.565 261.794 474.253C262.624 469.113 262.837 463.883 262.426 458.687C262.333 457.479 260.685 457.471 260.771 458.687C261.233 464.5 260.894 470.352 259.763 476.062C258.732 481.169 257.288 486.004 257.498 491.316C257.709 496.628 258.717 502.005 259.427 507.334L261.77 524.602C261.95 525.81 263.543 525.317 263.379 524.1Z" fill="#42210B"/>
<path d="M243.918 435.688C243.347 435.03 242.762 434.389 242.176 433.756L242.129 433.682C240.57 431.677 238.876 429.792 237.061 428.041L234.718 422.704C234.669 422.575 234.589 422.461 234.486 422.372C234.384 422.284 234.261 422.225 234.131 422.2C234 422.176 233.866 422.186 233.741 422.231C233.615 422.276 233.503 422.354 233.414 422.458C232.797 423.017 233.359 425.385 233.593 426.084C233.828 426.783 233.406 425.525 233.679 426.347C233.726 426.487 233.867 427.112 233.984 427.169C232.573 426.42 231.025 425.999 229.446 425.936C229.303 425.94 229.162 425.982 229.038 426.06C228.915 426.137 228.812 426.247 228.741 426.379C228.669 426.51 228.631 426.659 228.63 426.81C228.629 426.962 228.666 427.111 228.736 427.243C228.917 427.514 229.148 427.743 229.415 427.918H229.243C228.15 427.761 227.314 428.255 227.635 429.562C227.663 429.676 227.714 429.782 227.783 429.875C227.816 430.001 227.88 430.116 227.97 430.207C228.059 430.298 228.17 430.362 228.291 430.393L228.236 430.541C228.1 430.65 227.991 430.793 227.917 430.956C227.844 431.119 227.809 431.298 227.814 431.478C227.829 431.646 227.875 431.809 227.95 431.959C228.024 432.108 228.126 432.24 228.25 432.348C228.373 432.456 228.515 432.537 228.668 432.586C228.821 432.636 228.982 432.653 229.142 432.638L229.54 432.703C229.376 433.863 230.368 434.48 231.422 434.677C232.609 434.899 233.765 435.006 234.952 435.22L237.162 438.139C237.756 438.961 238.599 440.704 239.614 440.91C240.63 441.115 241.098 439.438 240.052 439.265C240.27 439.306 239.911 439.043 239.833 438.928C239.638 438.657 239.435 438.402 239.224 438.106C239.774 438.848 240.449 439.478 241.215 439.964C241.357 440.045 241.519 440.081 241.679 440.067C241.84 440.054 241.994 439.992 242.122 439.888C242.25 439.785 242.347 439.644 242.401 439.484C242.455 439.324 242.463 439.151 242.426 438.986C242.25 438.321 242.017 437.674 241.731 437.053C241.884 436.926 241.994 436.75 242.043 436.552L242.129 436.634C242.284 436.765 242.477 436.835 242.676 436.831L242.801 436.971C243.465 437.769 244.636 436.511 243.918 435.688Z" fill="#FE6162"/>
<path d="M259.771 414.926C259.771 414.926 249.103 413.906 246.588 419.859C244.074 425.813 245.315 434.216 245.315 434.216L238.81 428.987C238.81 428.987 235.608 433.098 235.218 435.565C234.827 438.032 241.294 445.63 247.783 447.324C254.273 449.017 266.011 449.511 267.854 445.383C269.697 441.255 269.83 428.83 267.674 424.045C265.519 419.259 259.771 414.926 259.771 414.926Z" fill="#68E1FD"/>
<path d="M250.306 404.442C250.306 404.442 249.767 412.664 252.149 414.589C254.531 416.513 258.49 413.347 258.49 413.347" fill="#FE6162"/>
<path d="M252.266 400.33C251.226 401.193 250.419 402.327 249.923 403.619C247.955 408.808 253.258 415.255 257.99 416.258L260.45 415.435C260.45 415.435 263.699 410.395 263.699 407.566C263.724 404.833 262.728 402.199 260.927 400.231C258.381 397.756 254.765 398.242 252.266 400.33Z" fill="#FFCE25"/>
<path d="M257.959 416.241C257.959 416.241 249.087 443.146 255.772 447.603C262.457 452.06 275.499 447.998 272.954 441.329C270.408 434.66 260.458 415.427 260.458 415.427" fill="#FFCE25"/>
<path d="M160.628 410.313C160.628 410.313 156.817 427.581 157.825 428.041C158.832 428.502 164.939 410.313 164.939 410.313H160.628Z" fill="#F2F2F2"/>
<path d="M157.653 428.247C158.3 428.247 158.824 427.827 158.824 427.309C158.824 426.792 158.3 426.372 157.653 426.372C157.006 426.372 156.482 426.792 156.482 427.309C156.482 427.827 157.006 428.247 157.653 428.247Z" fill="#F2F2F2"/>
<path d="M174.904 410.198C174.904 410.198 178.715 427.465 177.708 427.926C176.701 428.386 170.593 410.198 170.593 410.198H174.904Z" fill="#F2F2F2"/>
<path d="M177.88 428.148C178.527 428.148 179.051 427.728 179.051 427.211C179.051 426.693 178.527 426.273 177.88 426.273C177.233 426.273 176.708 426.693 176.708 427.211C176.708 427.728 177.233 428.148 177.88 428.148Z" fill="#F2F2F2"/>
<path d="M199.747 388.177C202.636 388.177 204.979 386.833 204.979 385.176C204.979 383.518 202.636 382.174 199.747 382.174C196.857 382.174 194.514 383.518 194.514 385.176C194.514 386.833 196.857 388.177 199.747 388.177Z" fill="#4E5462"/>
<path d="M194.514 385.57V373.03H204.737V384.666" fill="#4E5462"/>
<path d="M199.622 376.024C202.511 376.024 204.854 374.68 204.854 373.022C204.854 371.365 202.511 370.021 199.622 370.021C196.732 370.021 194.389 371.365 194.389 373.022C194.389 374.68 196.732 376.024 199.622 376.024Z" fill="#FE9A2A"/>
<path d="M199.38 371.838C199.38 371.838 204.69 372.57 207.127 373.244C209.563 373.919 217.045 381.673 216.725 382.24C216.404 382.807 214.639 383.827 214.171 383.523C213.702 383.219 201.293 378.088 200.895 377.109C200.496 376.13 199.38 371.838 199.38 371.838Z" fill="#4E5462"/>
<path d="M192.913 372.512C192.913 372.512 182.183 364.454 182.3 363.656C182.417 362.859 183.284 362.127 184.565 362.678C185.846 363.229 197.904 368.541 198.255 369.092C198.682 369.982 199.058 370.899 199.38 371.838L192.913 372.512Z" fill="#4E5462"/>
<path d="M135.817 388.654C138.707 388.654 141.05 387.31 141.05 385.652C141.05 383.995 138.707 382.651 135.817 382.651C132.928 382.651 130.585 383.995 130.585 385.652C130.585 387.31 132.928 388.654 135.817 388.654Z" fill="#4E5462"/>
<path d="M130.585 386.047V373.499H140.808V385.143" fill="#4E5462"/>
<path d="M135.7 376.501C138.59 376.501 140.933 375.157 140.933 373.499C140.933 371.842 138.59 370.498 135.7 370.498C132.81 370.498 130.468 371.842 130.468 373.499C130.468 375.157 132.81 376.501 135.7 376.501Z" fill="#FE9A2A"/>
<path d="M135.7 372.315C135.7 372.315 130.39 373.047 127.953 373.721C125.517 374.395 118.035 382.15 118.379 382.701C118.722 383.251 120.464 384.288 120.932 383.983C121.401 383.679 133.81 378.548 134.209 377.569C134.607 376.591 135.7 372.315 135.7 372.315Z" fill="#4E5462"/>
<path d="M142.167 372.989C142.167 372.989 152.897 364.931 152.78 364.133C152.663 363.336 151.796 362.604 150.515 363.155C149.234 363.706 137.176 369.018 136.825 369.569C136.397 370.459 136.022 371.376 135.7 372.315L142.167 372.989Z" fill="#4E5462"/>
<path d="M140.284 418.133V420.501L160.863 411.11C160.863 411.11 169.125 415.082 175.435 411.11L196.17 420.501L196.459 417.771L175.638 404.795L148.242 387.601L135.646 381.171V383.942L157.161 400.84" fill="#4E5462"/>
<path d="M175.802 406.654L196.459 417.779L200.496 413.108L181.433 402.978L160.8 390.101L140.144 378.49L135.646 381.171L154.599 393.719L154.006 402.978L137.348 414.473L140.284 418.133L160.051 407.583L175.802 406.654Z" fill="#F2F2F2"/>
<path d="M183.307 397.214L200.496 383.449V381.13L188.891 386.105L185.088 390.364L181.433 392.815L183.307 397.214Z" fill="#4E5462"/>
<path d="M173.655 390.101L195.959 378.49L200.496 381.13L181.8 393.719L173.655 390.101Z" fill="#F2F2F2"/>
<path d="M168.102 408.528C176.78 408.528 183.815 404.081 183.815 398.595C183.815 393.109 176.78 388.662 168.102 388.662C159.424 388.662 152.389 393.109 152.389 398.595C152.389 404.081 159.424 408.528 168.102 408.528Z" fill="#4E5462"/>
<path d="M168.102 406.316C175.245 406.316 181.035 402.686 181.035 398.209C181.035 393.731 175.245 390.101 168.102 390.101C160.96 390.101 155.17 393.731 155.17 398.209C155.17 402.686 160.96 406.316 168.102 406.316Z" fill="#E4E4E4"/>
<path d="M168.204 404.327C173.97 404.327 178.645 401.142 178.645 397.214C178.645 393.286 173.97 390.101 168.204 390.101C162.437 390.101 157.762 393.286 157.762 397.214C157.762 401.142 162.437 404.327 168.204 404.327Z" fill="#FE9A2A"/>
<path d="M133.943 374.017C134.107 374.017 134.888 374.593 135.583 374.617C136.278 374.642 137.364 374.165 137.278 373.738C137.192 373.31 135.966 370.835 135.505 370.876C135.044 370.917 133.943 374.017 133.943 374.017Z" fill="#F2F2F2"/>
<path d="M136.809 426.651C139.699 426.651 142.042 425.308 142.042 423.65C142.042 421.993 139.699 420.649 136.809 420.649C133.919 420.649 131.577 421.993 131.577 423.65C131.577 425.308 133.919 426.651 136.809 426.651Z" fill="#4E5462"/>
<path d="M131.577 424.045V411.497H141.8V423.132" fill="#4E5462"/>
<path d="M136.684 414.498C139.574 414.498 141.917 413.154 141.917 411.497C141.917 409.839 139.574 408.495 136.684 408.495C133.794 408.495 131.452 409.839 131.452 411.497C131.452 413.154 133.794 414.498 136.684 414.498Z" fill="#FE9A2A"/>
<path d="M136.442 410.313C136.442 410.313 141.753 411.045 144.189 411.719C146.626 412.393 154.107 420.147 153.764 420.698C153.42 421.249 151.679 422.285 151.21 421.981C150.742 421.677 138.332 416.546 137.934 415.567C137.536 414.589 136.442 410.313 136.442 410.313Z" fill="#4E5462"/>
<path d="M129.976 411.02C129.976 411.02 119.245 402.962 119.363 402.164C119.48 401.366 120.347 400.634 121.627 401.185C122.908 401.736 134.966 407.048 135.318 407.599C135.745 408.49 136.121 409.407 136.442 410.346L129.976 411.02Z" fill="#4E5462"/>
<path d="M200.738 429.02C203.628 429.02 205.971 427.676 205.971 426.018C205.971 424.361 203.628 423.017 200.738 423.017C197.849 423.017 195.506 424.361 195.506 426.018C195.506 427.676 197.849 429.02 200.738 429.02Z" fill="#4E5462"/>
<path d="M195.506 426.413V413.865H205.729V425.5" fill="#4E5462"/>
<path d="M200.613 416.866C203.503 416.866 205.846 415.523 205.846 413.865C205.846 412.207 203.503 410.864 200.613 410.864C197.724 410.864 195.381 412.207 195.381 413.865C195.381 415.523 197.724 416.866 200.613 416.866Z" fill="#FE9A2A"/>
<path d="M200.621 412.664C200.621 412.664 195.311 413.396 192.874 414.071C190.438 414.745 182.948 422.532 183.3 423.066C183.651 423.601 185.385 424.653 185.853 424.349C186.322 424.045 198.731 418.914 199.13 417.935C199.528 416.957 200.621 412.664 200.621 412.664Z" fill="#4E5462"/>
<path d="M207.08 413.355C207.08 413.355 217.818 405.264 217.701 404.499C217.584 403.734 216.717 402.97 215.436 403.521C214.155 404.072 202.097 409.384 201.746 409.934C201.319 410.82 200.943 411.731 200.621 412.664L207.08 413.355Z" fill="#4E5462"/>
<path d="M153.772 370.498C155.943 369.605 158.192 368.941 160.488 368.516C162.786 368.072 165.117 367.838 167.454 367.817C169.796 367.788 172.133 368.023 174.428 368.516C176.717 369.001 178.938 369.794 181.035 370.876C180.478 370.701 179.923 370.52 179.371 370.333L178.544 370.062L177.677 369.865C177.114 369.725 176.56 369.569 175.998 369.437L174.295 369.141C172.023 368.782 169.728 368.614 167.431 368.639C165.13 368.662 162.832 368.829 160.55 369.141C159.41 369.297 158.27 369.486 157.138 369.725C156.005 369.963 154.896 370.21 153.772 370.498Z" fill="#87A7D6"/>
<path d="M153.772 374.017C155.943 373.125 158.192 372.461 160.488 372.036C162.786 371.591 165.117 371.357 167.454 371.337C169.796 371.308 172.133 371.542 174.428 372.036C176.717 372.52 178.938 373.313 181.035 374.395C180.478 374.22 179.923 374.039 179.371 373.853L178.544 373.581L177.677 373.343C177.114 373.203 176.56 373.047 175.998 372.915L174.295 372.619C172.023 372.26 169.728 372.092 167.431 372.118C165.13 372.14 162.832 372.307 160.55 372.619C159.41 372.776 158.27 372.965 157.138 373.203C156.005 373.442 154.896 373.688 153.772 374.017Z" fill="#87A7D6"/>
<path d="M115.356 389.106C114.726 390.605 114.225 392.16 113.857 393.752C113.495 395.337 113.296 396.958 113.263 398.587C113.213 400.212 113.376 401.836 113.748 403.414C114.121 405.014 114.66 406.567 115.356 408.043C114.386 406.713 113.641 405.216 113.154 403.619C113.02 403.224 112.921 402.817 112.857 402.402C112.779 401.983 112.693 401.58 112.623 401.152C112.527 400.309 112.486 399.461 112.498 398.612C112.532 396.917 112.795 395.237 113.279 393.62C113.749 392.013 114.45 390.491 115.356 389.106Z" fill="#87A7D6"/>
<path d="M118.199 389.106C117.569 390.605 117.067 392.16 116.7 393.752C116.337 395.337 116.138 396.958 116.106 398.587C116.055 400.212 116.218 401.836 116.59 403.414C116.964 405.014 117.503 406.567 118.199 408.043C117.223 406.714 116.473 405.218 115.981 403.619C115.839 403.222 115.732 402.812 115.661 402.394C115.583 401.975 115.497 401.572 115.427 401.144C115.331 400.301 115.289 399.452 115.302 398.603C115.336 396.909 115.599 395.228 116.083 393.612C116.566 392.005 117.279 390.486 118.199 389.106Z" fill="#87A7D6"/>
<path d="M221.363 383.564C222.273 384.948 222.976 386.47 223.449 388.078C223.933 389.695 224.196 391.375 224.23 393.069C224.242 393.918 224.2 394.767 224.105 395.61C224.034 396.03 223.948 396.433 223.87 396.86C223.8 397.278 223.693 397.688 223.55 398.085C223.067 399.694 222.322 401.202 221.348 402.542C222.049 401.066 222.594 399.514 222.972 397.913C223.344 396.335 223.507 394.711 223.456 393.086C223.424 391.456 223.225 389.835 222.863 388.251C222.497 386.644 221.996 385.076 221.363 383.564Z" fill="#87A7D6"/>
<path d="M218.513 383.564C219.433 384.946 220.147 386.468 220.629 388.078C221.113 389.695 221.376 391.375 221.41 393.069C221.423 393.918 221.381 394.767 221.285 395.61C221.215 396.03 221.129 396.433 221.051 396.86C220.98 397.278 220.873 397.688 220.731 398.085C220.247 399.694 219.502 401.202 218.529 402.542C219.225 401.066 219.764 399.513 220.137 397.913C220.509 396.335 220.672 394.711 220.622 393.086C220.589 391.456 220.39 389.835 220.028 388.251C219.658 386.644 219.15 385.075 218.513 383.564Z" fill="#87A7D6"/>
<path d="M181.043 434.866C178.872 435.759 176.622 436.423 174.326 436.848C172.028 437.292 169.697 437.526 167.36 437.547C165.019 437.575 162.681 437.341 160.386 436.848C158.097 436.363 155.876 435.57 153.779 434.488C154.337 434.663 154.891 434.844 155.443 435.03L156.271 435.302L157.114 435.499C157.676 435.639 158.231 435.795 158.793 435.927L160.496 436.223C162.768 436.582 165.063 436.75 167.36 436.724C169.661 436.702 171.959 436.535 174.241 436.223C175.381 436.067 176.521 435.877 177.653 435.639C178.786 435.4 179.91 435.195 181.043 434.866Z" fill="#87A7D6"/>
<path d="M181.043 431.421C178.872 432.313 176.622 432.977 174.326 433.402C172.028 433.847 169.697 434.081 167.36 434.101C165.019 434.13 162.681 433.896 160.386 433.402C158.097 432.918 155.876 432.125 153.779 431.042C154.337 431.218 154.891 431.399 155.443 431.585L156.271 431.856L157.114 432.054C157.676 432.194 158.231 432.35 158.793 432.481L160.496 432.777C162.768 433.137 165.063 433.305 167.36 433.279C169.661 433.257 171.959 433.09 174.241 432.777C175.381 432.621 176.521 432.432 177.653 432.194C178.786 431.955 179.91 431.717 181.043 431.421Z" fill="#87A7D6"/>
<defs>
<filter id="filter0_d_14_2" x="0.82959" y="0.000610352" width="1024.4" height="627" filterUnits="userSpaceOnUse" color-interpolation-filters="sRGB">
<feFlood flood-opacity="0" result="BackgroundImageFix"/>
<feColorMatrix in="SourceAlpha" type="matrix" values="0 0 0 0 0 0 0 0 0 0 0 0 0 0 0 0 0 0 127 0" result="hardAlpha"/>
<feOffset/>
<feGaussianBlur stdDeviation="2"/>
<feComposite in2="hardAlpha" operator="out"/>
<feColorMatrix type="matrix" values="0 0 0 0 1 0 0 0 0 1 0 0 0 0 1 0 0 0 0.2 0"/>
<feBlend mode="normal" in2="BackgroundImageFix" result="effect1_dropShadow_14_2"/>
<feBlend mode="normal" in="SourceGraphic" in2="effect1_dropShadow_14_2" result="shape"/>
</filter>
<linearGradient id="paint0_linear_14_2" x1="231.547" y1="548.02" x2="255.452" y2="531.603" gradientUnits="userSpaceOnUse">
<stop stop-color="#4887ED"/>
<stop offset="1" stop-color="#0071BC"/>
</linearGradient>
<linearGradient id="paint1_linear_14_2" x1="330.713" y1="499.777" x2="344.282" y2="490.451" gradientUnits="userSpaceOnUse">
<stop stop-color="#4887ED"/>
<stop offset="1" stop-color="#0071BC"/>
</linearGradient>
<linearGradient id="paint2_linear_14_2" x1="298.592" y1="477.633" x2="312.161" y2="468.315" gradientUnits="userSpaceOnUse">
<stop stop-color="#4887ED"/>
<stop offset="1" stop-color="#0071BC"/>
</linearGradient>
</defs>
</svg>
